<svg width="20" height="20" viewBox="0 0 32 32" fill="none" xmlns="http://www.w3.org/2000/svg">
                                    <path d="M27.0876 19.0752C25.1243 19.6257 23.0498 19.6438 21.0771 19.1274C19.1045 18.6111 17.3049 17.5789 15.863 16.1372C14.4214 14.6953 13.3892 12.8958 12.8728 10.9231C12.3564 8.95044 12.3745 6.87598 12.925 4.9126C10.9895 5.45142 9.22876 6.48779 7.81836 7.91895C6.40796 9.34985 5.39697 11.1255 4.88647 13.0688C4.37573 15.012 4.38306 17.0552 4.90796 18.9946C5.43262 20.9343 6.4563 22.7024 7.87695 24.1233C9.29785 25.5439 11.0659 26.5676 13.0056 27.0923C14.9451 27.6172 16.9883 27.6245 18.9314 27.1138C20.8748 26.6033 22.6504 25.5923 24.0813 24.1819C25.5125 22.7715 26.5488 21.0107 27.0876 19.0752Z" fill="currentColor" fill-opacity="0.1"></path>
                                    <path fillRule="evenodd" clipRule="evenodd" d="M28.051 19.3438L28.0506 19.3454C28.0506 19.3454 27.1566 22.5551 24.7835 24.8941C24.7835 24.8941 22.4095 27.2339 19.1858 28.081C19.1858 28.081 15.962 28.9282 12.7445 28.0577C12.7445 28.0577 9.52702 27.1872 7.1701 24.8303C7.1701 24.8303 4.81318 22.4734 3.94271 19.2559C3.94271 19.2559 3.07225 16.0383 3.91937 12.8146C3.91937 12.8146 4.76649 9.59087 7.10626 7.21693C7.10626 7.21693 9.44603 4.84299 12.6572 3.94922C12.9127 3.8781 13.1859 3.9114 13.4169 4.04178C13.6479 4.17217 13.8176 4.38895 13.8887 4.64446C13.9377 4.82052 13.9375 5.00664 13.8882 5.1826C13.8882 5.1826 13.1206 7.91975 13.8404 10.6698C13.8404 10.6698 14.5603 13.4199 16.5704 15.43C16.5704 15.43 18.5805 17.4401 21.3306 18.16C21.3306 18.16 24.0806 18.8798 26.8178 18.1122C26.9882 18.0644 27.1683 18.0628 27.3396 18.1073L27.3559 18.1117C27.6928 18.2055 27.9562 18.4684 28.0507 18.8051C28.0984 18.9755 28.1001 19.1556 28.0556 19.3269L28.051 19.3438ZM23.3795 23.4697C23.3795 23.4697 24.7551 22.114 25.539 20.4099C25.539 20.4099 23.1856 20.7129 20.8241 20.0948C20.8241 20.0948 17.5496 19.2377 15.1562 16.8442C15.1562 16.8442 12.7627 14.4508 11.9056 11.1763C11.9056 11.1763 11.2875 8.81482 11.5905 6.46138C11.5905 6.46138 9.88644 7.24531 8.53069 8.62085C8.53069 8.62085 6.56528 10.615 5.8537 13.3229C5.8537 13.3229 5.14212 16.0308 5.87331 18.7336C5.87331 18.7336 6.6045 21.4363 8.58431 23.4161C8.58431 23.4161 10.5641 25.3959 13.2668 26.1271C13.2668 26.1271 15.9695 26.8583 18.6775 26.1467C18.6775 26.1467 21.3854 25.4351 23.3795 23.4697Z" fill="currentColor"></path>
                                <span class="flex absolute w-3 h-3 right-px top-[5px]">
                                <span class="animate-ping absolute -left-[3px] -top-[3px] inline-flex h-full w-full rounded-full bg-black/50 dark:bg-white/50 opacity-75"></span>
                                <span class="relative inline-flex rounded-full w-[6px] h-[6px] bg-black dark:bg-white"></span>
                            </span></svg>