<svg class="w-5 h-5" width="20" height="20" viewBox="0 0 32 32" fill="none" xmlns="http://www.w3.org/2000/svg">
                                    <path d="M23.5 16C23.5 20.1421 20.1421 23.5 16 23.5C11.8579 23.5 8.5 20.1421 8.5 16C8.5 11.8579 11.8579 8.5 16 8.5C20.1421 8.5 23.5 11.8579 23.5 16Z" fill="currentColor" fill-opacity="0.1"></path>
                                    <path fillRule="evenodd" clipRule="evenodd" d="M16 7.5C16 7.5 17.7287 7.5 19.3089 8.16838C19.3089 8.16838 20.8345 8.81364 22.0104 9.98959C22.0104 9.98959 23.1864 11.1655 23.8316 12.6911C23.8316 12.6911 24.5 14.2713 24.5 16C24.5 16 24.5 17.7287 23.8316 19.3089C23.8316 19.3089 23.1864 20.8345 22.0104 22.0104C22.0104 22.0104 20.8345 23.1864 19.3089 23.8316C19.3089 23.8316 17.7287 24.5 16 24.5C16 24.5 14.2713 24.5 12.6911 23.8316C12.6911 23.8316 11.1655 23.1864 9.98959 22.0104C9.98959 22.0104 8.81364 20.8345 8.16838 19.3089C8.16838 19.3089 7.5 17.7287 7.5 16C7.5 16 7.5 14.2713 8.16838 12.6911C8.16838 12.6911 8.81364 11.1655 9.98959 9.98959C9.98959 9.98959 11.1655 8.81364 12.6911 8.16838C12.6911 8.16838 14.2713 7.5 16 7.5ZM16 9.5C16 9.5 13.3076 9.5 11.4038 11.4038C11.4038 11.4038 9.5 13.3076 9.5 16C9.5 16 9.5 18.6924 11.4038 20.5962C11.4038 20.5962 13.3076 22.5 16 22.5C16 22.5 18.6924 22.5 20.5962 20.5962C20.5962 20.5962 22.5 18.6924 22.5 16C22.5 16 22.5 13.3076 20.5962 11.4038C20.5962 11.4038 18.6924 9.5 16 9.5Z" fill="currentColor"></path>
                                    <path d="M17 4.5V2C17 1.44772 16.5523 1 16 1C15.4477 1 15 1.44772 15 2V4.5C15 5.05228 15.4477 5.5 16 5.5C16.5523 5.5 17 5.05228 17 4.5Z" fill="currentColor"></path>
                                    <path d="M6.80672 5.39299C6.61918 5.20545 6.36483 5.1001 6.09961 5.1001C5.83439 5.1001 5.58004 5.20545 5.3925 5.39299C5.20497 5.58053 5.09961 5.83488 5.09961 6.1001C5.09961 6.36531 5.20497 6.61967 5.3925 6.8072L7.155 8.5697C7.34254 8.75724 7.59689 8.8626 7.86211 8.8626C8.12733 8.8626 8.38168 8.75724 8.56922 8.5697C8.75675 8.38217 8.86211 8.12781 8.86211 7.8626C8.86211 7.59738 8.75675 7.34303 8.56922 7.15549L6.80672 5.39299Z" fill="currentColor"></path>
                                    <path d="M4.5 15H2C1.44772 15 1 15.4477 1 16C1 16.5523 1.44772 17 2 17H4.5C5.05228 17 5.5 16.5523 5.5 16C5.5 15.4477 5.05228 15 4.5 15Z" fill="currentColor"></path>
                                    <path d="M5.3925 25.1928C5.20497 25.3804 5.09961 25.6347 5.09961 25.9C5.09961 25.9172 5.10006 25.9345 5.10095 25.9517C5.11375 26.1987 5.21762 26.4322 5.3925 26.6071C5.58004 26.7946 5.83439 26.9 6.09961 26.9C6.36483 26.9 6.61918 26.7946 6.80672 26.6071L8.56922 24.8446C8.75675 24.657 8.86211 24.4027 8.86211 24.1375C8.86211 23.8722 8.75675 23.6179 8.56922 23.4303C8.38168 23.2428 8.12733 23.1375 7.86211 23.1375C7.84485 23.1375 7.8276 23.1379 7.81037 23.1388C7.56338 23.1516 7.32989 23.2555 7.155 23.4303L5.3925 25.1928Z" fill="currentColor"></path>
                                    <path d="M15 27.5V30C15 30.5523 15.4477 31 16 31C16.5523 31 17 30.5523 17 30V27.5C17 26.9477 16.5523 26.5 16 26.5C15.4477 26.5 15 26.9477 15 27.5Z" fill="currentColor"></path>
                                    <path d="M23.4307 24.8447L25.1931 26.6071C25.3806 26.7946 25.635 26.9 25.9002 26.9C26.1654 26.9 26.4198 26.7946 26.6073 26.6071C26.7948 26.4195 26.9002 26.1652 26.9002 25.9C26.9002 25.6347 26.7948 25.3804 26.6073 25.1928L24.8449 23.4305C24.6573 23.2428 24.4029 23.1375 24.1377 23.1375C23.8725 23.1375 23.6181 23.2428 23.4306 23.4303C23.2431 23.6179 23.1377 23.8722 23.1377 24.1375C23.1377 24.4027 23.2431 24.657 23.4307 24.8447Z" fill="currentColor"></path>
                                    <path d="M27.5 17H30C30.5523 17 31 16.5523 31 16C31 15.4477 30.5523 15 30 15H27.5C26.9477 15 26.5 15.4477 26.5 16C26.5 16.5523 26.9477 17 27.5 17Z" fill="currentColor"></path>
                                    <path d="M26.6073 6.8072C26.7948 6.61967 26.9002 6.36531 26.9002 6.1001C26.9002 5.83488 26.7948 5.58053 26.6073 5.39299C26.4198 5.20545 26.1654 5.1001 25.9002 5.1001C25.635 5.1001 25.3806 5.20545 25.1931 5.39299L23.4307 7.15537C23.2431 7.34303 23.1377 7.59738 23.1377 7.8626C23.1377 8.12781 23.2431 8.38217 23.4306 8.56971C23.6181 8.75724 23.8725 8.8626 24.1377 8.8626C24.4029 8.8626 24.6573 8.75724 24.8448 8.5697L26.6073 6.8072Z" fill="currentColor"></path>
                                </svg>