<svg width="614" height="232" viewBox="0 0 614 232" fill="none" xmlns="http://www.w3.org/2000/svg">
<path d="M1.05611 10.8182H2.12997C2.16122 11.1136 2.26207 11.3636 2.43253 11.5682C2.60582 11.7699 2.83026 11.9233 3.10582 12.0284C3.38139 12.1307 3.68679 12.1818 4.02202 12.1818C4.38565 12.1818 4.71236 12.1207 5.00213 11.9986C5.2919 11.8764 5.52202 11.6946 5.69247 11.4531C5.86293 11.2088 5.94815 10.9062 5.94815 10.5455C5.94815 10.2301 5.87429 9.9375 5.72656 9.66761C5.57884 9.39489 5.34162 9.17472 5.01491 9.0071C4.68821 8.83949 4.25497 8.75568 3.7152 8.75568H3.01634V7.90341L5.19815 5.27841V5.21023H1.48224V4.27273H6.64702V5.03977L4.31179 7.86932V7.9375C4.68679 7.95455 5.03622 8.03125 5.36009 8.16761C5.68679 8.30398 5.97088 8.48864 6.21236 8.72159C6.45668 8.95455 6.64702 9.22585 6.78338 9.53551C6.91974 9.84517 6.98793 10.1818 6.98793 10.5455C6.98793 11.0426 6.86009 11.4858 6.6044 11.875C6.35156 12.2614 6.00071 12.5653 5.55185 12.7869C5.10582 13.0085 4.5902 13.1193 4.00497 13.1193C3.48793 13.1193 3.01207 13.0284 2.57741 12.8466C2.14276 12.6648 1.78906 12.402 1.51634 12.0582C1.24361 11.7145 1.0902 11.3011 1.05611 10.8182ZM11.5742 13.1193C10.9322 13.1193 10.3853 12.9446 9.93359 12.5952C9.48189 12.2429 9.13672 11.733 8.89808 11.0653C8.65945 10.3949 8.54013 9.58523 8.54013 8.63636C8.54013 7.69318 8.65945 6.88778 8.89808 6.22017C9.13956 5.54972 9.48615 5.03835 9.93786 4.68608C10.3924 4.33097 10.9379 4.15341 11.5742 4.15341C12.2106 4.15341 12.7546 4.33097 13.2063 4.68608C13.6609 5.03835 14.0075 5.54972 14.2461 6.22017C14.4876 6.88778 14.6083 7.69318 14.6083 8.63636C14.6083 9.58523 14.489 10.3949 14.2504 11.0653C14.0117 11.733 13.6665 12.2429 13.2148 12.5952C12.7631 12.9446 12.2163 13.1193 11.5742 13.1193ZM11.5742 12.1818C12.2106 12.1818 12.7049 11.875 13.0572 11.2614C13.4094 10.6477 13.5856 9.77273 13.5856 8.63636C13.5856 7.88068 13.5046 7.23722 13.3427 6.70597C13.1836 6.17472 12.9535 5.76989 12.6523 5.49148C12.354 5.21307 11.9947 5.07386 11.5742 5.07386C10.9435 5.07386 10.4506 5.38494 10.0955 6.0071C9.74041 6.62642 9.56286 7.50284 9.56286 8.63636C9.56286 9.39205 9.6424 10.0341 9.80149 10.5625C9.96058 11.0909 10.1893 11.4929 10.4876 11.7685C10.7887 12.044 11.1509 12.1818 11.5742 12.1818ZM16.381 4.27273H17.6424L20.6083 11.517H20.7106L23.6765 4.27273H24.9379V13H23.9492V6.36932H23.864L21.1367 13H20.1822L17.4549 6.36932H17.3697V13H16.381V4.27273Z" fill="#1C1C1C" fill-opacity="0.4"/>
<path d="M1.462 71V70.233L4.34268 67.0795C4.68075 66.7102 4.95916 66.3892 5.17791 66.1165C5.39666 65.8409 5.55859 65.5824 5.66371 65.3409C5.77166 65.0966 5.82564 64.8409 5.82564 64.5739C5.82564 64.267 5.75178 64.0014 5.60405 63.777C5.45916 63.5526 5.2603 63.3793 5.00746 63.2571C4.75462 63.1349 4.47053 63.0739 4.15518 63.0739C3.81996 63.0739 3.52734 63.1435 3.27734 63.2827C3.03018 63.419 2.83842 63.6108 2.70206 63.858C2.56854 64.1051 2.50178 64.3949 2.50178 64.7273H1.49609C1.49609 64.2159 1.61399 63.767 1.84979 63.3807C2.08558 62.9943 2.40661 62.6932 2.81286 62.4773C3.22195 62.2614 3.68075 62.1534 4.18928 62.1534C4.70064 62.1534 5.15376 62.2614 5.54865 62.4773C5.94354 62.6932 6.2532 62.9844 6.47763 63.3509C6.70206 63.7173 6.81428 64.125 6.81428 64.5739C6.81428 64.8949 6.75604 65.2088 6.63956 65.5156C6.52592 65.8196 6.32706 66.1591 6.04297 66.5341C5.76172 66.9062 5.37109 67.3608 4.87109 67.8977L2.91087 69.9943V70.0625H6.96768V71H1.462ZM11.5742 71.1193C10.9322 71.1193 10.3853 70.9446 9.93359 70.5952C9.48189 70.2429 9.13672 69.733 8.89808 69.0653C8.65945 68.3949 8.54013 67.5852 8.54013 66.6364C8.54013 65.6932 8.65945 64.8878 8.89808 64.2202C9.13956 63.5497 9.48615 63.0384 9.93786 62.6861C10.3924 62.331 10.9379 62.1534 11.5742 62.1534C12.2106 62.1534 12.7546 62.331 13.2063 62.6861C13.6609 63.0384 14.0075 63.5497 14.2461 64.2202C14.4876 64.8878 14.6083 65.6932 14.6083 66.6364C14.6083 67.5852 14.489 68.3949 14.2504 69.0653C14.0117 69.733 13.6665 70.2429 13.2148 70.5952C12.7631 70.9446 12.2163 71.1193 11.5742 71.1193ZM11.5742 70.1818C12.2106 70.1818 12.7049 69.875 13.0572 69.2614C13.4094 68.6477 13.5856 67.7727 13.5856 66.6364C13.5856 65.8807 13.5046 65.2372 13.3427 64.706C13.1836 64.1747 12.9535 63.7699 12.6523 63.4915C12.354 63.2131 11.9947 63.0739 11.5742 63.0739C10.9435 63.0739 10.4506 63.3849 10.0955 64.0071C9.74041 64.6264 9.56286 65.5028 9.56286 66.6364C9.56286 67.392 9.6424 68.0341 9.80149 68.5625C9.96058 69.0909 10.1893 69.4929 10.4876 69.7685C10.7887 70.044 11.1509 70.1818 11.5742 70.1818ZM16.381 62.2727H17.6424L20.6083 69.517H20.7106L23.6765 62.2727H24.9379V71H23.9492V64.3693H23.864L21.1367 71H20.1822L17.4549 64.3693H17.3697V71H16.381V62.2727Z" fill="#1C1C1C" fill-opacity="0.4"/>
<path d="M6.22621 120.273V129H5.16939V121.807H5.10121C5.06143 121.886 4.95916 121.977 4.79439 122.08C4.62962 122.179 4.41655 122.267 4.15518 122.344C3.89382 122.418 3.59553 122.455 3.2603 122.455V121.568C3.59837 121.568 3.89098 121.507 4.13814 121.385C4.3853 121.263 4.59126 121.119 4.75604 120.955C4.92365 120.79 5.05007 120.641 5.1353 120.507C5.22337 120.374 5.2745 120.295 5.28871 120.273H6.22621ZM11.5742 129.119C10.9322 129.119 10.3853 128.945 9.93359 128.595C9.48189 128.243 9.13672 127.733 8.89808 127.065C8.65945 126.395 8.54013 125.585 8.54013 124.636C8.54013 123.693 8.65945 122.888 8.89808 122.22C9.13956 121.55 9.48615 121.038 9.93786 120.686C10.3924 120.331 10.9379 120.153 11.5742 120.153C12.2106 120.153 12.7546 120.331 13.2063 120.686C13.6609 121.038 14.0075 121.55 14.2461 122.22C14.4876 122.888 14.6083 123.693 14.6083 124.636C14.6083 125.585 14.489 126.395 14.2504 127.065C14.0117 127.733 13.6665 128.243 13.2148 128.595C12.7631 128.945 12.2163 129.119 11.5742 129.119ZM11.5742 128.182C12.2106 128.182 12.7049 127.875 13.0572 127.261C13.4094 126.648 13.5856 125.773 13.5856 124.636C13.5856 123.881 13.5046 123.237 13.3427 122.706C13.1836 122.175 12.9535 121.77 12.6523 121.491C12.354 121.213 11.9947 121.074 11.5742 121.074C10.9435 121.074 10.4506 121.385 10.0955 122.007C9.74041 122.626 9.56286 123.503 9.56286 124.636C9.56286 125.392 9.6424 126.034 9.80149 126.562C9.96058 127.091 10.1893 127.493 10.4876 127.768C10.7887 128.044 11.1509 128.182 11.5742 128.182ZM16.381 120.273H17.6424L20.6083 127.517H20.7106L23.6765 120.273H24.9379V129H23.9492V122.369H23.864L21.1367 129H20.1822L17.4549 122.369H17.3697V129H16.381V120.273Z" fill="#1C1C1C" fill-opacity="0.4"/>
<path d="M22.25 187.119C21.608 187.119 21.0611 186.945 20.6094 186.595C20.1577 186.243 19.8125 185.733 19.5739 185.065C19.3352 184.395 19.2159 183.585 19.2159 182.636C19.2159 181.693 19.3352 180.888 19.5739 180.22C19.8153 179.55 20.1619 179.038 20.6136 178.686C21.0682 178.331 21.6136 178.153 22.25 178.153C22.8864 178.153 23.4304 178.331 23.8821 178.686C24.3366 179.038 24.6832 179.55 24.9219 180.22C25.1634 180.888 25.2841 181.693 25.2841 182.636C25.2841 183.585 25.1648 184.395 24.9261 185.065C24.6875 185.733 24.3423 186.243 23.8906 186.595C23.4389 186.945 22.892 187.119 22.25 187.119ZM22.25 186.182C22.8864 186.182 23.3807 185.875 23.733 185.261C24.0852 184.648 24.2614 183.773 24.2614 182.636C24.2614 181.881 24.1804 181.237 24.0185 180.706C23.8594 180.175 23.6293 179.77 23.3281 179.491C23.0298 179.213 22.6705 179.074 22.25 179.074C21.6193 179.074 21.1264 179.385 20.7713 180.007C20.4162 180.626 20.2386 181.503 20.2386 182.636C20.2386 183.392 20.3182 184.034 20.4773 184.562C20.6364 185.091 20.8651 185.493 21.1634 185.768C21.4645 186.044 21.8267 186.182 22.25 186.182Z" fill="#1C1C1C" fill-opacity="0.4"/>
<line x1="42.5" y1="15.5" x2="613.5" y2="15.5" stroke="#1C1C1C" stroke-opacity="0.05" stroke-linecap="round"/>
<line x1="42.5" y1="78.1666" x2="613.5" y2="78.1666" stroke="#1C1C1C" stroke-opacity="0.05" stroke-linecap="round"/>
<line x1="42.5" y1="140.833" x2="613.5" y2="140.833" stroke="#1C1C1C" stroke-opacity="0.05" stroke-linecap="round"/>
<line x1="42.5" y1="203.5" x2="613.5" y2="203.5" stroke="#1C1C1C" stroke-opacity="0.2" stroke-linecap="round"/>
<path d="M83.5703 218.273H84.6271V224.511C84.6271 225.068 84.5248 225.541 84.3203 225.93C84.1157 226.32 83.8274 226.615 83.4552 226.817C83.083 227.018 82.6441 227.119 82.1384 227.119C81.6612 227.119 81.2364 227.033 80.8643 226.859C80.4921 226.683 80.1995 226.433 79.9864 226.109C79.7734 225.786 79.6668 225.401 79.6668 224.955H80.7066C80.7066 225.202 80.7677 225.418 80.8899 225.602C81.0149 225.784 81.1853 225.926 81.4012 226.028C81.6171 226.131 81.8629 226.182 82.1384 226.182C82.4424 226.182 82.7009 226.118 82.914 225.99C83.1271 225.862 83.289 225.675 83.3998 225.428C83.5134 225.178 83.5703 224.872 83.5703 224.511V218.273ZM89.0802 227.136C88.5347 227.136 88.0532 226.999 87.6356 226.723C87.218 226.445 86.8913 226.053 86.6555 225.547C86.4197 225.038 86.3018 224.438 86.3018 223.744C86.3018 223.057 86.4197 222.46 86.6555 221.955C86.8913 221.449 87.2194 221.058 87.6399 220.783C88.0603 220.507 88.5461 220.369 89.0972 220.369C89.5234 220.369 89.86 220.44 90.1072 220.582C90.3572 220.722 90.5475 220.881 90.6782 221.06C90.8117 221.236 90.9154 221.381 90.9893 221.494H91.0745V220.455H92.0802V227H91.1086V225.994H90.9893C90.9154 226.114 90.8103 226.264 90.6739 226.446C90.5376 226.625 90.343 226.786 90.0901 226.928C89.8373 227.067 89.5007 227.136 89.0802 227.136ZM89.2166 226.233C89.62 226.233 89.9609 226.128 90.2393 225.918C90.5177 225.705 90.7293 225.411 90.8742 225.036C91.0191 224.658 91.0916 224.222 91.0916 223.727C91.0916 223.239 91.0205 222.811 90.8785 222.445C90.7364 222.075 90.5262 221.788 90.2478 221.584C89.9694 221.376 89.6257 221.273 89.2166 221.273C88.7904 221.273 88.4353 221.382 88.1512 221.601C87.87 221.817 87.6583 222.111 87.5163 222.483C87.3771 222.852 87.3075 223.267 87.3075 223.727C87.3075 224.193 87.3785 224.616 87.5205 224.997C87.6654 225.375 87.8785 225.676 88.1597 225.901C88.4438 226.122 88.7961 226.233 89.2166 226.233ZM95.0674 223.062V227H94.0617V220.455H95.0333V221.477H95.1186C95.272 221.145 95.5049 220.878 95.8174 220.676C96.1299 220.472 96.5333 220.369 97.0276 220.369C97.4708 220.369 97.8586 220.46 98.191 220.642C98.5234 220.821 98.7819 221.094 98.9666 221.46C99.1512 221.824 99.2436 222.284 99.2436 222.841V227H98.2379V222.909C98.2379 222.395 98.1043 221.994 97.8373 221.707C97.5703 221.418 97.2038 221.273 96.7379 221.273C96.4168 221.273 96.1299 221.342 95.8771 221.482C95.6271 221.621 95.4296 221.824 95.2847 222.091C95.1399 222.358 95.0674 222.682 95.0674 223.062Z" fill="#1C1C1C" fill-opacity="0.4"/>
<path d="M175.557 227V218.273H180.79V219.21H176.614V222.159H180.398V223.097H176.614V227H175.557ZM184.727 227.136C184.097 227.136 183.553 226.997 183.095 226.719C182.641 226.438 182.29 226.045 182.043 225.543C181.798 225.037 181.676 224.449 181.676 223.778C181.676 223.108 181.798 222.517 182.043 222.006C182.29 221.491 182.634 221.091 183.074 220.804C183.517 220.514 184.034 220.369 184.625 220.369C184.966 220.369 185.303 220.426 185.635 220.54C185.967 220.653 186.27 220.838 186.543 221.094C186.815 221.347 187.033 221.682 187.195 222.099C187.357 222.517 187.438 223.031 187.438 223.642V224.068H182.392V223.199H186.415C186.415 222.83 186.341 222.5 186.193 222.21C186.048 221.92 185.841 221.692 185.571 221.524C185.304 221.357 184.989 221.273 184.625 221.273C184.224 221.273 183.878 221.372 183.585 221.571C183.295 221.767 183.072 222.023 182.916 222.338C182.76 222.653 182.682 222.991 182.682 223.352V223.932C182.682 224.426 182.767 224.845 182.938 225.189C183.111 225.53 183.351 225.79 183.658 225.969C183.965 226.145 184.321 226.233 184.727 226.233C184.992 226.233 185.23 226.196 185.443 226.122C185.659 226.045 185.845 225.932 186.001 225.781C186.158 225.628 186.278 225.437 186.364 225.21L187.335 225.483C187.233 225.812 187.061 226.102 186.82 226.352C186.578 226.599 186.28 226.793 185.925 226.932C185.57 227.068 185.17 227.136 184.727 227.136ZM189.104 227V218.273H190.109V221.494H190.195C190.269 221.381 190.371 221.236 190.501 221.06C190.635 220.881 190.825 220.722 191.072 220.582C191.322 220.44 191.661 220.369 192.087 220.369C192.638 220.369 193.124 220.507 193.544 220.783C193.965 221.058 194.293 221.449 194.528 221.955C194.764 222.46 194.882 223.057 194.882 223.744C194.882 224.438 194.764 225.038 194.528 225.547C194.293 226.053 193.966 226.445 193.548 226.723C193.131 226.999 192.649 227.136 192.104 227.136C191.683 227.136 191.347 227.067 191.094 226.928C190.841 226.786 190.646 226.625 190.51 226.446C190.374 226.264 190.269 226.114 190.195 225.994H190.075V227H189.104ZM190.092 223.727C190.092 224.222 190.165 224.658 190.31 225.036C190.455 225.411 190.666 225.705 190.945 225.918C191.223 226.128 191.564 226.233 191.967 226.233C192.388 226.233 192.739 226.122 193.02 225.901C193.304 225.676 193.517 225.375 193.659 224.997C193.804 224.616 193.876 224.193 193.876 223.727C193.876 223.267 193.805 222.852 193.663 222.483C193.524 222.111 193.313 221.817 193.028 221.601C192.747 221.382 192.394 221.273 191.967 221.273C191.558 221.273 191.215 221.376 190.936 221.584C190.658 221.788 190.447 222.075 190.305 222.445C190.163 222.811 190.092 223.239 190.092 223.727Z" fill="#1C1C1C" fill-opacity="0.4"/>
<path d="M270.093 218.273H271.355L274.321 225.517H274.423L277.389 218.273H278.65V227H277.661V220.369H277.576L274.849 227H273.894L271.167 220.369H271.082V227H270.093V218.273ZM283.104 227.136C282.559 227.136 282.077 226.999 281.66 226.723C281.242 226.445 280.915 226.053 280.68 225.547C280.444 225.038 280.326 224.438 280.326 223.744C280.326 223.057 280.444 222.46 280.68 221.955C280.915 221.449 281.243 221.058 281.664 220.783C282.084 220.507 282.57 220.369 283.121 220.369C283.547 220.369 283.884 220.44 284.131 220.582C284.381 220.722 284.572 220.881 284.702 221.06C284.836 221.236 284.939 221.381 285.013 221.494H285.099V220.455H286.104V227H285.133V225.994H285.013C284.939 226.114 284.834 226.264 284.698 226.446C284.562 226.625 284.367 226.786 284.114 226.928C283.861 227.067 283.525 227.136 283.104 227.136ZM283.241 226.233C283.644 226.233 283.985 226.128 284.263 225.918C284.542 225.705 284.753 225.411 284.898 225.036C285.043 224.658 285.116 224.222 285.116 223.727C285.116 223.239 285.045 222.811 284.903 222.445C284.76 222.075 284.55 221.788 284.272 221.584C283.993 221.376 283.65 221.273 283.241 221.273C282.814 221.273 282.459 221.382 282.175 221.601C281.894 221.817 281.682 222.111 281.54 222.483C281.401 222.852 281.332 223.267 281.332 223.727C281.332 224.193 281.403 224.616 281.545 224.997C281.689 225.375 281.903 225.676 282.184 225.901C282.468 226.122 282.82 226.233 283.241 226.233ZM288.086 227V220.455H289.057V221.443H289.126C289.245 221.119 289.461 220.857 289.773 220.655C290.086 220.453 290.438 220.352 290.83 220.352C290.904 220.352 290.996 220.354 291.107 220.357C291.218 220.359 291.302 220.364 291.359 220.369V221.392C291.324 221.384 291.246 221.371 291.124 221.354C291.005 221.334 290.878 221.324 290.745 221.324C290.427 221.324 290.143 221.391 289.893 221.524C289.645 221.655 289.449 221.837 289.305 222.07C289.162 222.3 289.091 222.562 289.091 222.858V227H288.086Z" fill="#1C1C1C" fill-opacity="0.4"/>
<path d="M367.138 227H366.03L369.235 218.273H370.326L373.53 227H372.422L369.814 219.653H369.746L367.138 227ZM367.547 223.591H372.013V224.528H367.547V223.591ZM374.753 229.455V220.455H375.725V221.494H375.844C375.918 221.381 376.02 221.236 376.151 221.06C376.284 220.881 376.475 220.722 376.722 220.582C376.972 220.44 377.31 220.369 377.736 220.369C378.287 220.369 378.773 220.507 379.193 220.783C379.614 221.058 379.942 221.449 380.178 221.955C380.414 222.46 380.532 223.057 380.532 223.744C380.532 224.438 380.414 225.038 380.178 225.547C379.942 226.053 379.615 226.445 379.198 226.723C378.78 226.999 378.299 227.136 377.753 227.136C377.333 227.136 376.996 227.067 376.743 226.928C376.49 226.786 376.296 226.625 376.159 226.446C376.023 226.264 375.918 226.114 375.844 225.994H375.759V229.455H374.753ZM375.742 223.727C375.742 224.222 375.814 224.658 375.959 225.036C376.104 225.411 376.316 225.705 376.594 225.918C376.872 226.128 377.213 226.233 377.617 226.233C378.037 226.233 378.388 226.122 378.669 225.901C378.953 225.676 379.166 225.375 379.309 224.997C379.453 224.616 379.526 224.193 379.526 223.727C379.526 223.267 379.455 222.852 379.313 222.483C379.174 222.111 378.962 221.817 378.678 221.601C378.397 221.382 378.043 221.273 377.617 221.273C377.208 221.273 376.864 221.376 376.586 221.584C376.307 221.788 376.097 222.075 375.955 222.445C375.813 222.811 375.742 223.239 375.742 223.727ZM382.066 227V220.455H383.037V221.443H383.105C383.225 221.119 383.441 220.857 383.753 220.655C384.066 220.453 384.418 220.352 384.81 220.352C384.884 220.352 384.976 220.354 385.087 220.357C385.198 220.359 385.282 220.364 385.338 220.369V221.392C385.304 221.384 385.226 221.371 385.104 221.354C384.985 221.334 384.858 221.324 384.725 221.324C384.407 221.324 384.122 221.391 383.872 221.524C383.625 221.655 383.429 221.837 383.284 222.07C383.142 222.3 383.071 222.562 383.071 222.858V227H382.066Z" fill="#1C1C1C" fill-opacity="0.4"/>
<path d="M459.653 218.273H460.914L463.88 225.517H463.982L466.948 218.273H468.209V227H467.221V220.369H467.136L464.408 227H463.454L460.726 220.369H460.641V227H459.653V218.273ZM472.664 227.136C472.118 227.136 471.637 226.999 471.219 226.723C470.801 226.445 470.475 226.053 470.239 225.547C470.003 225.038 469.885 224.438 469.885 223.744C469.885 223.057 470.003 222.46 470.239 221.955C470.475 221.449 470.803 221.058 471.223 220.783C471.644 220.507 472.129 220.369 472.681 220.369C473.107 220.369 473.443 220.44 473.691 220.582C473.941 220.722 474.131 220.881 474.262 221.06C474.395 221.236 474.499 221.381 474.573 221.494H474.658V220.455H475.664V227H474.692V225.994H474.573C474.499 226.114 474.394 226.264 474.257 226.446C474.121 226.625 473.926 226.786 473.674 226.928C473.421 227.067 473.084 227.136 472.664 227.136ZM472.8 226.233C473.203 226.233 473.544 226.128 473.823 225.918C474.101 225.705 474.313 225.411 474.458 225.036C474.602 224.658 474.675 224.222 474.675 223.727C474.675 223.239 474.604 222.811 474.462 222.445C474.32 222.075 474.11 221.788 473.831 221.584C473.553 221.376 473.209 221.273 472.8 221.273C472.374 221.273 472.019 221.382 471.735 221.601C471.453 221.817 471.242 222.111 471.1 222.483C470.96 222.852 470.891 223.267 470.891 223.727C470.891 224.193 470.962 224.616 471.104 224.997C471.249 225.375 471.462 225.676 471.743 225.901C472.027 226.122 472.379 226.233 472.8 226.233ZM478.293 229.455C478.122 229.455 477.97 229.44 477.837 229.412C477.703 229.386 477.611 229.361 477.56 229.335L477.816 228.449C478.06 228.511 478.276 228.534 478.463 228.517C478.651 228.5 478.817 228.416 478.962 228.266C479.11 228.118 479.245 227.878 479.367 227.545L479.554 227.034L477.134 220.455H478.225L480.031 225.67H480.1L481.906 220.455H482.997L480.219 227.955C480.094 228.293 479.939 228.572 479.754 228.794C479.57 229.018 479.355 229.185 479.111 229.293C478.87 229.401 478.597 229.455 478.293 229.455Z" fill="#1C1C1C" fill-opacity="0.4"/>
<path d="M560.477 218.273H561.534V224.511C561.534 225.068 561.432 225.541 561.227 225.93C561.023 226.32 560.734 226.615 560.362 226.817C559.99 227.018 559.551 227.119 559.045 227.119C558.568 227.119 558.143 227.033 557.771 226.859C557.399 226.683 557.106 226.433 556.893 226.109C556.68 225.786 556.574 225.401 556.574 224.955H557.614C557.614 225.202 557.675 225.418 557.797 225.602C557.922 225.784 558.092 225.926 558.308 226.028C558.524 226.131 558.77 226.182 559.045 226.182C559.349 226.182 559.608 226.118 559.821 225.99C560.034 225.862 560.196 225.675 560.307 225.428C560.42 225.178 560.477 224.872 560.477 224.511V218.273ZM567.641 224.324V220.455H568.646V227H567.641V225.892H567.572C567.419 226.224 567.18 226.507 566.856 226.74C566.533 226.97 566.123 227.085 565.629 227.085C565.22 227.085 564.856 226.996 564.538 226.817C564.22 226.635 563.97 226.362 563.788 225.999C563.606 225.632 563.516 225.17 563.516 224.614V220.455H564.521V224.545C564.521 225.023 564.655 225.403 564.922 225.688C565.192 225.972 565.535 226.114 565.953 226.114C566.203 226.114 566.457 226.05 566.716 225.922C566.977 225.794 567.196 225.598 567.372 225.334C567.551 225.07 567.641 224.733 567.641 224.324ZM571.494 223.062V227H570.488V220.455H571.46V221.477H571.545C571.698 221.145 571.931 220.878 572.244 220.676C572.556 220.472 572.96 220.369 573.454 220.369C573.897 220.369 574.285 220.46 574.617 220.642C574.95 220.821 575.208 221.094 575.393 221.46C575.578 221.824 575.67 222.284 575.67 222.841V227H574.664V222.909C574.664 222.395 574.531 221.994 574.264 221.707C573.997 221.418 573.63 221.273 573.164 221.273C572.843 221.273 572.556 221.342 572.304 221.482C572.054 221.621 571.856 221.824 571.711 222.091C571.566 222.358 571.494 222.682 571.494 223.062Z" fill="#1C1C1C" fill-opacity="0.4"/>
<mask id="mask0_2_10436" style="mask-type:alpha" maskUnits="userSpaceOnUse" x="62" y="48" width="538" height="109">
<rect x="62.0851" y="48.4694" width="537.851" height="107.603" fill="url(#paint0_radial_2_10436)"/>
</mask>
<g mask="url(#mask0_2_10436)">
<path opacity="0.2" d="M249.277 137.442C156.542 146.122 104.672 129.635 62.234 108.653V248.674H599.787V68.6416C418.507 54.9791 357.207 127.34 249.277 137.442Z" fill="#1C1C1C"/>
<path opacity="0.4" d="M275.556 98.0526C165.781 59.6573 84.9031 120.063 62.234 140.778V248.674H599.787V48.4694C484.293 93.4027 473.116 167.152 275.556 98.0526Z" fill="#A8C5DA"/>
</g>
<path d="M62.234 108.653C104.672 129.635 156.542 146.122 249.277 137.442C303.142 132.4 345.393 111.851 396.74 94.2278" stroke="#1C1C1C" stroke-width="3" stroke-linecap="round" stroke-linejoin="round"/>
<path d="M599.787 68.6415C509.568 61.842 449.066 76.3489 397.744 93.8841" stroke="#1C1C1C" stroke-width="3" stroke-linecap="round" stroke-linejoin="round" stroke-dasharray="3 10"/>
<path d="M62.234 140.778C84.9031 120.063 165.781 59.6573 275.556 98.0526C473.116 167.152 484.293 93.4027 599.787 48.4694" stroke="#A8C5DA" stroke-width="3" stroke-linecap="round" stroke-linejoin="round"/>
<path d="M249.277 137.298C302.228 132.342 343.955 112.401 394.132 94.9841" stroke="#1C1C1C" stroke-width="3" stroke-linecap="round" stroke-linejoin="round"/>
<defs>
<radialGradient id="paint0_radial_2_10436" cx="0" cy="0" r="1" gradientUnits="userSpaceOnUse" gradientTransform="translate(306.747 61.4025) rotate(87) scale(57.9527 239.348)">
<stop/>
<stop offset="1" stop-color="#D9D9D9" stop-opacity="0"/>
</radialGradient>
</defs>
</svg>
