<svg width="51" height="26" viewBox="0 0 51 26" fill="none" xmlns="http://www.w3.org/2000/svg">
<g filter="url(#filter0_b_70_9145)">
<path d="M0 12.8C0 8.31958 0 6.07937 0.871948 4.36808C1.63893 2.86278 2.86278 1.63893 4.36808 0.871948C6.07937 0 8.31958 0 12.8 0H38.2C42.6804 0 44.9206 0 46.6319 0.871948C48.1372 1.63893 49.3611 2.86278 50.1281 4.36808C51 6.07937 51 8.31958 51 12.8V13.2C51 17.6804 51 19.9206 50.1281 21.6319C49.3611 23.1372 48.1372 24.3611 46.6319 25.1281C44.9206 26 42.6804 26 38.2 26H12.8C8.31958 26 6.07937 26 4.36808 25.1281C2.86278 24.3611 1.63893 23.1372 0.871948 21.6319C0 19.9206 0 17.6804 0 13.2V12.8Z" fill="#1C1C1C" fill-opacity="1"/>
<path d="M8.76705 14.8182H9.84091C9.87216 15.1136 9.97301 15.3636 10.1435 15.5682C10.3168 15.7699 10.5412 15.9233 10.8168 16.0284C11.0923 16.1307 11.3977 16.1818 11.733 16.1818C12.0966 16.1818 12.4233 16.1207 12.7131 15.9986C13.0028 15.8764 13.233 15.6946 13.4034 15.4531C13.5739 15.2088 13.6591 14.9062 13.6591 14.5455C13.6591 14.2301 13.5852 13.9375 13.4375 13.6676C13.2898 13.3949 13.0526 13.1747 12.7259 13.0071C12.3991 12.8395 11.9659 12.7557 11.4261 12.7557H10.7273V11.9034L12.9091 9.27841V9.21023H9.19318V8.27273H14.358V9.03977L12.0227 11.8693V11.9375C12.3977 11.9545 12.7472 12.0312 13.071 12.1676C13.3977 12.304 13.6818 12.4886 13.9233 12.7216C14.1676 12.9545 14.358 13.2259 14.4943 13.5355C14.6307 13.8452 14.6989 14.1818 14.6989 14.5455C14.6989 15.0426 14.571 15.4858 14.3153 15.875C14.0625 16.2614 13.7116 16.5653 13.2628 16.7869C12.8168 17.0085 12.3011 17.1193 11.7159 17.1193C11.1989 17.1193 10.723 17.0284 10.2884 16.8466C9.85369 16.6648 9.5 16.402 9.22727 16.0582C8.95455 15.7145 8.80114 15.3011 8.76705 14.8182ZM19.234 17.1193C18.6488 17.1193 18.1317 17.0156 17.6829 16.8082C17.2369 16.598 16.8888 16.3097 16.6388 15.9432C16.3888 15.5739 16.2653 15.1534 16.2681 14.6818C16.2653 14.3125 16.3377 13.9716 16.4854 13.6591C16.6332 13.3437 16.8349 13.081 17.0906 12.8707C17.3491 12.6577 17.6374 12.5227 17.9556 12.4659V12.4148C17.538 12.3068 17.2056 12.0724 16.9585 11.7116C16.7113 11.348 16.5891 10.9347 16.592 10.4716C16.5891 10.0284 16.7013 9.6321 16.9286 9.28267C17.1559 8.93324 17.4684 8.65767 17.8661 8.45597C18.2667 8.25426 18.7227 8.15341 19.234 8.15341C19.7397 8.15341 20.1914 8.25426 20.5891 8.45597C20.9869 8.65767 21.2994 8.93324 21.5266 9.28267C21.7567 9.6321 21.8732 10.0284 21.8761 10.4716C21.8732 10.9347 21.7468 11.348 21.4968 11.7116C21.2496 12.0724 20.9215 12.3068 20.5124 12.4148V12.4659C20.8278 12.5227 21.1119 12.6577 21.3647 12.8707C21.6175 13.081 21.8192 13.3437 21.9698 13.6591C22.1204 13.9716 22.1971 14.3125 22.1999 14.6818C22.1971 15.1534 22.0692 15.5739 21.8164 15.9432C21.5664 16.3097 21.2184 16.598 20.7724 16.8082C20.3292 17.0156 19.8164 17.1193 19.234 17.1193ZM19.234 16.1818C19.6289 16.1818 19.9698 16.1179 20.2567 15.9901C20.5437 15.8622 20.7653 15.6818 20.9215 15.4489C21.0778 15.2159 21.1573 14.9432 21.1602 14.6307C21.1573 14.3011 21.0721 14.0099 20.9045 13.7571C20.7369 13.5043 20.5082 13.3054 20.2184 13.1605C19.9315 13.0156 19.6033 12.9432 19.234 12.9432C18.8619 12.9432 18.5295 13.0156 18.2369 13.1605C17.9471 13.3054 17.7184 13.5043 17.5508 13.7571C17.386 14.0099 17.305 14.3011 17.3079 14.6307C17.305 14.9432 17.3803 15.2159 17.5337 15.4489C17.69 15.6818 17.913 15.8622 18.2028 15.9901C18.4925 16.1179 18.8363 16.1818 19.234 16.1818ZM19.234 12.0398C19.5465 12.0398 19.8235 11.9773 20.065 11.8523C20.3093 11.7273 20.5011 11.5526 20.6403 11.3281C20.7795 11.1037 20.8505 10.8409 20.8533 10.5398C20.8505 10.2443 20.7809 9.98722 20.6445 9.76847C20.5082 9.54687 20.3192 9.37642 20.0778 9.2571C19.8363 9.13494 19.555 9.07386 19.234 9.07386C18.9073 9.07386 18.6218 9.13494 18.3775 9.2571C18.1332 9.37642 17.9442 9.54687 17.8107 9.76847C17.6772 9.98722 17.6119 10.2443 17.6147 10.5398C17.6119 10.8409 17.6786 11.1037 17.815 11.3281C17.9542 11.5526 18.146 11.7273 18.3903 11.8523C18.6346 11.9773 18.9158 12.0398 19.234 12.0398ZM24.3136 17.0682C24.1033 17.0682 23.9229 16.9929 23.7724 16.8423C23.6218 16.6918 23.5465 16.5114 23.5465 16.3011C23.5465 16.0909 23.6218 15.9105 23.7724 15.7599C23.9229 15.6094 24.1033 15.5341 24.3136 15.5341C24.5238 15.5341 24.7042 15.6094 24.8548 15.7599C25.0053 15.9105 25.0806 16.0909 25.0806 16.3011C25.0806 16.4403 25.0451 16.5682 24.9741 16.6847C24.9059 16.8011 24.8136 16.8949 24.6971 16.9659C24.5835 17.0341 24.4556 17.0682 24.3136 17.0682ZM26.6637 14.2386C26.6694 13.9659 26.7106 13.6832 26.7873 13.3906C26.864 13.098 26.9933 12.7727 27.1751 12.4148C27.3569 12.0568 27.6069 11.642 27.9251 11.1705L29.8853 8.27273H31.0444L28.7433 11.6307C28.8455 11.5966 28.9506 11.5682 29.0586 11.5455C29.1694 11.5227 29.2802 11.5114 29.391 11.5114C29.9194 11.5114 30.391 11.6335 30.8058 11.8778C31.2234 12.1222 31.5515 12.456 31.7901 12.8793C32.0316 13.3026 32.1523 13.7841 32.1523 14.3239C32.1523 14.8636 32.033 15.3437 31.7944 15.7642C31.5586 16.1847 31.2333 16.5156 30.8185 16.7571C30.4066 16.9986 29.9364 17.1193 29.408 17.1193C28.8739 17.1193 28.3995 16.9957 27.9847 16.7486C27.57 16.4986 27.2447 16.1577 27.0089 15.7259C26.7731 15.2912 26.658 14.7955 26.6637 14.2386ZM27.6694 14.3068C27.6694 14.6761 27.7433 15.0028 27.891 15.2869C28.0387 15.571 28.2433 15.794 28.5046 15.956C28.766 16.1179 29.0671 16.1989 29.408 16.1989C29.7489 16.1989 30.0501 16.1193 30.3114 15.9602C30.5728 15.7983 30.7773 15.5767 30.9251 15.2955C31.0728 15.0114 31.1467 14.6875 31.1467 14.3239C31.1467 13.9545 31.0728 13.6293 30.9251 13.348C30.7773 13.0668 30.5728 12.8466 30.3114 12.6875C30.0501 12.5284 29.7489 12.4489 29.408 12.4489C29.0671 12.4489 28.766 12.5284 28.5046 12.6875C28.2433 12.8438 28.0387 13.0625 27.891 13.3438C27.7433 13.6222 27.6694 13.9432 27.6694 14.3068ZM38.2077 15.3636V14.9034C38.2077 14.5852 38.2731 14.294 38.4038 14.0298C38.5373 13.7628 38.7305 13.5497 38.9833 13.3906C39.239 13.2287 39.5487 13.1477 39.9123 13.1477C40.2816 13.1477 40.5913 13.2287 40.8413 13.3906C41.0913 13.5497 41.2802 13.7628 41.408 14.0298C41.5359 14.294 41.5998 14.5852 41.5998 14.9034V15.3636C41.5998 15.6818 41.5344 15.9744 41.4038 16.2415C41.2759 16.5057 41.0856 16.7187 40.8327 16.8807C40.5827 17.0398 40.2759 17.1193 39.9123 17.1193C39.543 17.1193 39.2319 17.0398 38.979 16.8807C38.7262 16.7187 38.5344 16.5057 38.4038 16.2415C38.2731 15.9744 38.2077 15.6818 38.2077 15.3636ZM39.0771 14.9034V15.3636C39.0771 15.6278 39.1396 15.8651 39.2646 16.0753C39.3896 16.2827 39.6055 16.3864 39.9123 16.3864C40.2106 16.3864 40.4208 16.2827 40.543 16.0753C40.668 15.8651 40.7305 15.6278 40.7305 15.3636V14.9034C40.7305 14.6392 40.6708 14.4034 40.5515 14.196C40.4322 13.9858 40.2191 13.8807 39.9123 13.8807C39.614 13.8807 39.3995 13.9858 39.2688 14.196C39.141 14.4034 39.0771 14.6392 39.0771 14.9034ZM33.8612 10.3693V9.90909C33.8612 9.59091 33.9265 9.29972 34.0572 9.03551C34.1907 8.76847 34.3839 8.5554 34.6367 8.39631C34.8924 8.23437 35.2021 8.15341 35.5657 8.15341C35.935 8.15341 36.2447 8.23437 36.4947 8.39631C36.7447 8.5554 36.9336 8.76847 37.0614 9.03551C37.1893 9.29972 37.2532 9.59091 37.2532 9.90909V10.3693C37.2532 10.6875 37.1879 10.9801 37.0572 11.2472C36.9293 11.5114 36.739 11.7244 36.4862 11.8864C36.2362 12.0455 35.9293 12.125 35.5657 12.125C35.1964 12.125 34.8853 12.0455 34.6325 11.8864C34.3796 11.7244 34.1879 11.5114 34.0572 11.2472C33.9265 10.9801 33.8612 10.6875 33.8612 10.3693ZM34.7305 9.90909V10.3693C34.7305 10.6335 34.793 10.8707 34.918 11.081C35.043 11.2884 35.2589 11.392 35.5657 11.392C35.864 11.392 36.0742 11.2884 36.1964 11.081C36.3214 10.8707 36.3839 10.6335 36.3839 10.3693V9.90909C36.3839 9.64489 36.3242 9.40909 36.2049 9.2017C36.0856 8.99148 35.8725 8.88636 35.5657 8.88636C35.2674 8.88636 35.0529 8.99148 34.9222 9.2017C34.7944 9.40909 34.7305 9.64489 34.7305 9.90909ZM34.185 17L40.185 8.27273H41.1566L35.1566 17H34.185Z" fill="white"/>
</g>
<defs>
<filter id="filter0_b_70_9145" x="-40" y="-40" width="131" height="106" filterUnits="userSpaceOnUse" color-interpolation-filters="sRGB">
<feFlood flood-opacity="0" result="BackgroundImageFix"/>
<feGaussianBlur in="BackgroundImageFix" stdDeviation="20"/>
<feComposite in2="SourceAlpha" operator="in" result="effect1_backgroundBlur_70_9145"/>
<feBlend mode="normal" in="SourceGraphic" in2="effect1_backgroundBlur_70_9145" result="shape"/>
</filter>
</defs>
</svg>
