<svg width="154" height="124" viewBox="0 0 154 124" fill="none" xmlns="http://www.w3.org/2000/svg">
<path d="M15 11C15 12.6569 13.6569 14 12 14C10.3431 14 9 12.6569 9 11C9 9.34315 10.3431 8 12 8C13.6569 8 15 9.34315 15 11Z" fill="#1C1C1C"/>
<path d="M23.75 15H21.0568V6.27273H23.8693C24.7159 6.27273 25.4403 6.44744 26.0426 6.79688C26.6449 7.14347 27.1065 7.64205 27.4276 8.29261C27.7486 8.94034 27.9091 9.71591 27.9091 10.6193C27.9091 11.5284 27.7472 12.3111 27.4233 12.9673C27.0994 13.6207 26.6278 14.1236 26.0085 14.4759C25.3892 14.8253 24.6364 15 23.75 15ZM22.1136 14.0625H23.6818C24.4034 14.0625 25.0014 13.9233 25.4759 13.6449C25.9503 13.3665 26.304 12.9702 26.5369 12.456C26.7699 11.9418 26.8864 11.3295 26.8864 10.6193C26.8864 9.91477 26.7713 9.30824 26.5412 8.79972C26.3111 8.28835 25.9673 7.89631 25.5099 7.62358C25.0526 7.34801 24.483 7.21023 23.8011 7.21023H22.1136V14.0625ZM29.5455 15V8.45455H30.5511V15H29.5455ZM30.0568 7.36364C29.8608 7.36364 29.6918 7.29688 29.5497 7.16335C29.4105 7.02983 29.3409 6.86932 29.3409 6.68182C29.3409 6.49432 29.4105 6.33381 29.5497 6.20028C29.6918 6.06676 29.8608 6 30.0568 6C30.2528 6 30.4205 6.06676 30.5597 6.20028C30.7017 6.33381 30.7727 6.49432 30.7727 6.68182C30.7727 6.86932 30.7017 7.02983 30.5597 7.16335C30.4205 7.29688 30.2528 7.36364 30.0568 7.36364ZM32.3931 15V8.45455H33.3647V9.44318H33.4329C33.5522 9.11932 33.7681 8.85653 34.0806 8.65483C34.3931 8.45312 34.7454 8.35227 35.1374 8.35227C35.2113 8.35227 35.3036 8.35369 35.4144 8.35653C35.5252 8.35937 35.609 8.36364 35.6658 8.36932V9.39205C35.6317 9.38352 35.5536 9.37074 35.4315 9.35369C35.3121 9.33381 35.1857 9.32386 35.0522 9.32386C34.734 9.32386 34.4499 9.39062 34.1999 9.52415C33.9528 9.65483 33.7567 9.83665 33.6119 10.0696C33.4698 10.2997 33.3988 10.5625 33.3988 10.858V15H32.3931ZM39.4031 15.1364C38.7724 15.1364 38.2283 14.9972 37.771 14.7188C37.3164 14.4375 36.9656 14.0455 36.7184 13.5426C36.4741 13.0369 36.3519 12.4489 36.3519 11.7784C36.3519 11.108 36.4741 10.517 36.7184 10.0057C36.9656 9.49148 37.3093 9.09091 37.7496 8.80398C38.1928 8.5142 38.7099 8.36932 39.3008 8.36932C39.6417 8.36932 39.9783 8.42614 40.3107 8.53977C40.6431 8.65341 40.9457 8.83807 41.2184 9.09375C41.4911 9.34659 41.7085 9.68182 41.8704 10.0994C42.0323 10.517 42.1133 11.0312 42.1133 11.642V12.0682H37.0678V11.1989H41.0906C41.0906 10.8295 41.0167 10.5 40.869 10.2102C40.7241 9.92045 40.5167 9.69176 40.2468 9.52415C39.9798 9.35653 39.6644 9.27273 39.3008 9.27273C38.9002 9.27273 38.5536 9.37216 38.261 9.57102C37.9712 9.76705 37.7482 10.0227 37.592 10.3381C37.4357 10.6534 37.3576 10.9915 37.3576 11.3523V11.9318C37.3576 12.4261 37.4428 12.8452 37.6133 13.1889C37.7866 13.5298 38.0266 13.7898 38.3335 13.9688C38.6403 14.1449 38.9968 14.233 39.4031 14.233C39.6673 14.233 39.9059 14.196 40.119 14.1222C40.3349 14.0455 40.521 13.9318 40.6772 13.7812C40.8335 13.6278 40.9542 13.4375 41.0394 13.2102L42.011 13.483C41.9087 13.8125 41.7369 14.1023 41.4954 14.3523C41.2539 14.5994 40.9556 14.7926 40.6005 14.9318C40.2454 15.0682 39.8462 15.1364 39.4031 15.1364ZM46.3022 15.1364C45.6886 15.1364 45.1602 14.9915 44.717 14.7017C44.2738 14.4119 43.9329 14.0128 43.6942 13.5043C43.4556 12.9957 43.3363 12.4148 43.3363 11.7614C43.3363 11.0966 43.4585 10.5099 43.7028 10.0014C43.9499 9.49006 44.2937 9.09091 44.734 8.80398C45.1772 8.5142 45.6942 8.36932 46.2852 8.36932C46.7454 8.36932 47.1602 8.45455 47.5295 8.625C47.8988 8.79545 48.2013 9.03409 48.4371 9.34091C48.6729 9.64773 48.8192 10.0057 48.8761 10.4148H47.8704C47.7937 10.1165 47.6232 9.85227 47.359 9.62216C47.0977 9.3892 46.7454 9.27273 46.3022 9.27273C45.9102 9.27273 45.5664 9.375 45.271 9.57955C44.9783 9.78125 44.7496 10.0668 44.5849 10.4361C44.4229 10.8026 44.342 11.233 44.342 11.7273C44.342 12.233 44.4215 12.6733 44.5806 13.0483C44.7425 13.4233 44.9698 13.7145 45.2624 13.9219C45.5579 14.1293 45.9045 14.233 46.3022 14.233C46.5636 14.233 46.8008 14.1875 47.0138 14.0966C47.2269 14.0057 47.4073 13.875 47.555 13.7045C47.7028 13.5341 47.8079 13.3295 47.8704 13.0909H48.8761C48.8192 13.4773 48.6786 13.8253 48.4542 14.1349C48.2326 14.4418 47.9386 14.6861 47.5721 14.8679C47.2085 15.0469 46.7852 15.1364 46.3022 15.1364ZM53.1928 8.45455V9.30682H49.8008V8.45455H53.1928ZM50.7894 6.88636H51.7951V13.125C51.7951 13.4091 51.8363 13.6222 51.9187 13.7642C52.0039 13.9034 52.1119 13.9972 52.2425 14.0455C52.3761 14.0909 52.5167 14.1136 52.6644 14.1136C52.7752 14.1136 52.8661 14.108 52.9371 14.0966C53.0082 14.0824 53.065 14.071 53.1076 14.0625L53.3121 14.9659C53.244 14.9915 53.1488 15.017 53.0266 15.0426C52.9045 15.071 52.7496 15.0852 52.5621 15.0852C52.2781 15.0852 51.9996 15.0241 51.7269 14.902C51.457 14.7798 51.2326 14.5938 51.0536 14.3438C50.8775 14.0938 50.7894 13.7784 50.7894 13.3977V6.88636Z" fill="#1C1C1C"/>
<path d="M104.477 16.0909V5.18182H105.176V16.0909H104.477ZM106.83 8.45455C106.778 8.02273 106.571 7.6875 106.207 7.44886C105.844 7.21023 105.398 7.09091 104.869 7.09091C104.483 7.09091 104.145 7.15341 103.855 7.27841C103.568 7.40341 103.344 7.57528 103.182 7.79403C103.023 8.01278 102.943 8.26136 102.943 8.53977C102.943 8.77273 102.999 8.97301 103.109 9.14062C103.223 9.3054 103.368 9.44318 103.544 9.55398C103.72 9.66193 103.905 9.75142 104.098 9.82244C104.291 9.89062 104.469 9.94602 104.631 9.98864L105.517 10.2273C105.744 10.2869 105.997 10.3693 106.276 10.4744C106.557 10.5795 106.825 10.723 107.081 10.9048C107.339 11.0838 107.553 11.3139 107.72 11.5952C107.888 11.8764 107.972 12.2216 107.972 12.6307C107.972 13.1023 107.848 13.5284 107.601 13.9091C107.357 14.2898 106.999 14.5923 106.527 14.8168C106.058 15.0412 105.489 15.1534 104.818 15.1534C104.193 15.1534 103.652 15.0526 103.195 14.8509C102.74 14.6491 102.382 14.3679 102.121 14.0071C101.862 13.6463 101.716 13.2273 101.682 12.75H102.773C102.801 13.0795 102.912 13.3523 103.105 13.5682C103.301 13.7812 103.548 13.9403 103.847 14.0455C104.148 14.1477 104.472 14.1989 104.818 14.1989C105.222 14.1989 105.584 14.1335 105.905 14.0028C106.226 13.8693 106.48 13.6847 106.668 13.4489C106.855 13.2102 106.949 12.9318 106.949 12.6136C106.949 12.3239 106.868 12.0881 106.706 11.9062C106.544 11.7244 106.331 11.5767 106.067 11.4631C105.803 11.3494 105.517 11.25 105.21 11.1648L104.136 10.858C103.455 10.6619 102.915 10.3821 102.517 10.0185C102.119 9.65483 101.92 9.17898 101.92 8.59091C101.92 8.10227 102.053 7.67614 102.317 7.3125C102.584 6.94602 102.942 6.66193 103.391 6.46023C103.842 6.25568 104.347 6.15341 104.903 6.15341C105.466 6.15341 105.966 6.25426 106.403 6.45597C106.841 6.65483 107.188 6.92756 107.443 7.27415C107.702 7.62074 107.838 8.0142 107.852 8.45455H106.83ZM109.419 12.8182H110.493C110.525 13.1136 110.625 13.3636 110.796 13.5682C110.969 13.7699 111.194 13.9233 111.469 14.0284C111.745 14.1307 112.05 14.1818 112.385 14.1818C112.749 14.1818 113.076 14.1207 113.365 13.9986C113.655 13.8764 113.885 13.6946 114.056 13.4531C114.226 13.2088 114.311 12.9062 114.311 12.5455C114.311 12.2301 114.238 11.9375 114.09 11.6676C113.942 11.3949 113.705 11.1747 113.378 11.0071C113.051 10.8395 112.618 10.7557 112.078 10.7557H111.38V9.90341L113.561 7.27841V7.21023H109.846V6.27273H115.01V7.03977L112.675 9.86932V9.9375C113.05 9.95455 113.4 10.0312 113.723 10.1676C114.05 10.304 114.334 10.4886 114.576 10.7216C114.82 10.9545 115.01 11.2259 115.147 11.5355C115.283 11.8452 115.351 12.1818 115.351 12.5455C115.351 13.0426 115.223 13.4858 114.968 13.875C114.715 14.2614 114.364 14.5653 113.915 14.7869C113.469 15.0085 112.953 15.1193 112.368 15.1193C111.851 15.1193 111.375 15.0284 110.941 14.8466C110.506 14.6648 110.152 14.402 109.88 14.0582C109.607 13.7145 109.453 13.3011 109.419 12.8182ZM119.938 15.1193C119.295 15.1193 118.749 14.9446 118.297 14.5952C117.845 14.2429 117.5 13.733 117.261 13.0653C117.023 12.3949 116.903 11.5852 116.903 10.6364C116.903 9.69318 117.023 8.88778 117.261 8.22017C117.503 7.54972 117.849 7.03835 118.301 6.68608C118.756 6.33097 119.301 6.15341 119.938 6.15341C120.574 6.15341 121.118 6.33097 121.57 6.68608C122.024 7.03835 122.371 7.54972 122.609 8.22017C122.851 8.88778 122.972 9.69318 122.972 10.6364C122.972 11.5852 122.852 12.3949 122.614 13.0653C122.375 13.733 122.03 14.2429 121.578 14.5952C121.126 14.9446 120.58 15.1193 119.938 15.1193ZM119.938 14.1818C120.574 14.1818 121.068 13.875 121.42 13.2614C121.773 12.6477 121.949 11.7727 121.949 10.6364C121.949 9.88068 121.868 9.23722 121.706 8.70597C121.547 8.17472 121.317 7.76989 121.016 7.49148C120.717 7.21307 120.358 7.07386 119.938 7.07386C119.307 7.07386 118.814 7.38494 118.459 8.0071C118.104 8.62642 117.926 9.50284 117.926 10.6364C117.926 11.392 118.006 12.0341 118.165 12.5625C118.324 13.0909 118.553 13.4929 118.851 13.7685C119.152 14.044 119.514 14.1818 119.938 14.1818ZM127.438 15.1193C126.795 15.1193 126.249 14.9446 125.797 14.5952C125.345 14.2429 125 13.733 124.761 13.0653C124.523 12.3949 124.403 11.5852 124.403 10.6364C124.403 9.69318 124.523 8.88778 124.761 8.22017C125.003 7.54972 125.349 7.03835 125.801 6.68608C126.256 6.33097 126.801 6.15341 127.438 6.15341C128.074 6.15341 128.618 6.33097 129.07 6.68608C129.524 7.03835 129.871 7.54972 130.109 8.22017C130.351 8.88778 130.472 9.69318 130.472 10.6364C130.472 11.5852 130.352 12.3949 130.114 13.0653C129.875 13.733 129.53 14.2429 129.078 14.5952C128.626 14.9446 128.08 15.1193 127.438 15.1193ZM127.438 14.1818C128.074 14.1818 128.568 13.875 128.92 13.2614C129.273 12.6477 129.449 11.7727 129.449 10.6364C129.449 9.88068 129.368 9.23722 129.206 8.70597C129.047 8.17472 128.817 7.76989 128.516 7.49148C128.217 7.21307 127.858 7.07386 127.438 7.07386C126.807 7.07386 126.314 7.38494 125.959 8.0071C125.604 8.62642 125.426 9.50284 125.426 10.6364C125.426 11.392 125.506 12.0341 125.665 12.5625C125.824 13.0909 126.053 13.4929 126.351 13.7685C126.652 14.044 127.014 14.1818 127.438 14.1818ZM132.536 15.0682C132.326 15.0682 132.146 14.9929 131.995 14.8423C131.844 14.6918 131.769 14.5114 131.769 14.3011C131.769 14.0909 131.844 13.9105 131.995 13.7599C132.146 13.6094 132.326 13.5341 132.536 13.5341C132.746 13.5341 132.927 13.6094 133.077 13.7599C133.228 13.9105 133.303 14.0909 133.303 14.3011C133.303 14.4403 133.268 14.5682 133.197 14.6847C133.129 14.8011 133.036 14.8949 132.92 14.9659C132.806 15.0341 132.678 15.0682 132.536 15.0682ZM137.642 15.1193C137.142 15.1193 136.692 15.0199 136.292 14.821C135.891 14.6222 135.57 14.3494 135.328 14.0028C135.087 13.6562 134.955 13.2614 134.932 12.8182H135.955C135.995 13.2131 136.174 13.5398 136.492 13.7983C136.813 14.054 137.196 14.1818 137.642 14.1818C138 14.1818 138.319 14.098 138.597 13.9304C138.878 13.7628 139.098 13.5327 139.257 13.2401C139.419 12.9446 139.5 12.6108 139.5 12.2386C139.5 11.858 139.417 11.5185 139.249 11.2202C139.084 10.919 138.857 10.6818 138.567 10.5085C138.277 10.3352 137.946 10.2472 137.574 10.2443C137.307 10.2415 137.033 10.2827 136.752 10.3679C136.471 10.4503 136.239 10.5568 136.057 10.6875L135.069 10.5682L135.597 6.27273H140.131V7.21023H136.483L136.176 9.78409H136.228C136.407 9.64205 136.631 9.52415 136.901 9.4304C137.171 9.33665 137.452 9.28977 137.745 9.28977C138.279 9.28977 138.755 9.41761 139.172 9.6733C139.593 9.92614 139.922 10.2727 140.161 10.7131C140.402 11.1534 140.523 11.6562 140.523 12.2216C140.523 12.7784 140.398 13.2756 140.148 13.7131C139.901 14.1477 139.56 14.4915 139.125 14.7443C138.691 14.9943 138.196 15.1193 137.642 15.1193ZM142.011 12.2386C142.017 11.9659 142.058 11.6832 142.135 11.3906C142.212 11.098 142.341 10.7727 142.523 10.4148C142.705 10.0568 142.955 9.64205 143.273 9.17045L145.233 6.27273H146.392L144.091 9.63068C144.193 9.59659 144.298 9.56818 144.406 9.54545C144.517 9.52273 144.628 9.51136 144.739 9.51136C145.267 9.51136 145.739 9.63352 146.153 9.87784C146.571 10.1222 146.899 10.456 147.138 10.8793C147.379 11.3026 147.5 11.7841 147.5 12.3239C147.5 12.8636 147.381 13.3437 147.142 13.7642C146.906 14.1847 146.581 14.5156 146.166 14.7571C145.754 14.9986 145.284 15.1193 144.756 15.1193C144.222 15.1193 143.747 14.9957 143.332 14.7486C142.918 14.4986 142.592 14.1577 142.357 13.7259C142.121 13.2912 142.006 12.7955 142.011 12.2386ZM143.017 12.3068C143.017 12.6761 143.091 13.0028 143.239 13.2869C143.386 13.571 143.591 13.794 143.852 13.956C144.114 14.1179 144.415 14.1989 144.756 14.1989C145.097 14.1989 145.398 14.1193 145.659 13.9602C145.92 13.7983 146.125 13.5767 146.273 13.2955C146.42 13.0114 146.494 12.6875 146.494 12.3239C146.494 11.9545 146.42 11.6293 146.273 11.348C146.125 11.0668 145.92 10.8466 145.659 10.6875C145.398 10.5284 145.097 10.4489 144.756 10.4489C144.415 10.4489 144.114 10.5284 143.852 10.6875C143.591 10.8438 143.386 11.0625 143.239 11.3438C143.091 11.6222 143.017 11.9432 143.017 12.3068Z" fill="#1C1C1C"/>
<path d="M15 45C15 46.6569 13.6569 48 12 48C10.3431 48 9 46.6569 9 45C9 43.3431 10.3431 42 12 42C13.6569 42 15 43.3431 15 45Z" fill="#BAEDBD"/>
<path d="M21.4148 49H20.3068L23.5114 40.2727H24.6023L27.8068 49H26.6989L24.0909 41.6534H24.0227L21.4148 49ZM21.8239 45.5909H26.2898V46.5284H21.8239V45.5909ZM31.9446 42.4545V43.3068H28.4162V42.4545H31.9446ZM29.473 49V41.5511C29.473 41.1761 29.5611 40.8636 29.7372 40.6136C29.9134 40.3636 30.142 40.1761 30.4233 40.0511C30.7045 39.9261 31.0014 39.8636 31.3139 39.8636C31.5611 39.8636 31.7628 39.8835 31.919 39.9233C32.0753 39.9631 32.1918 40 32.2685 40.0341L31.9787 40.9034C31.9276 40.8864 31.8565 40.8651 31.7656 40.8395C31.6776 40.8139 31.5611 40.8011 31.4162 40.8011C31.0838 40.8011 30.8438 40.8849 30.696 41.0526C30.5511 41.2202 30.4787 41.4659 30.4787 41.7898V49H29.473ZM36.2688 42.4545V43.3068H32.7404V42.4545H36.2688ZM33.7972 49V41.5511C33.7972 41.1761 33.8853 40.8636 34.0614 40.6136C34.2376 40.3636 34.4663 40.1761 34.7475 40.0511C35.0288 39.9261 35.3256 39.8636 35.6381 39.8636C35.8853 39.8636 36.087 39.8835 36.2433 39.9233C36.3995 39.9631 36.516 40 36.5927 40.0341L36.3029 40.9034C36.2518 40.8864 36.1808 40.8651 36.0898 40.8395C36.0018 40.8139 35.8853 40.8011 35.7404 40.8011C35.408 40.8011 35.168 40.8849 35.0202 41.0526C34.8754 41.2202 34.8029 41.4659 34.8029 41.7898V49H33.7972ZM37.6783 49V42.4545H38.6839V49H37.6783ZM38.1896 41.3636C37.9936 41.3636 37.8246 41.2969 37.6825 41.1634C37.5433 41.0298 37.4737 40.8693 37.4737 40.6818C37.4737 40.4943 37.5433 40.3338 37.6825 40.2003C37.8246 40.0668 37.9936 40 38.1896 40C38.3857 40 38.5533 40.0668 38.6925 40.2003C38.8345 40.3338 38.9055 40.4943 38.9055 40.6818C38.9055 40.8693 38.8345 41.0298 38.6925 41.1634C38.5533 41.2969 38.3857 41.3636 38.1896 41.3636ZM41.5316 40.2727V49H40.5259V40.2727H41.5316ZM44.3793 40.2727V49H43.3736V40.2727H44.3793ZM46.2212 49V42.4545H47.2269V49H46.2212ZM46.7326 41.3636C46.5366 41.3636 46.3675 41.2969 46.2255 41.1634C46.0863 41.0298 46.0167 40.8693 46.0167 40.6818C46.0167 40.4943 46.0863 40.3338 46.2255 40.2003C46.3675 40.0668 46.5366 40 46.7326 40C46.9286 40 47.0962 40.0668 47.2354 40.2003C47.3775 40.3338 47.4485 40.4943 47.4485 40.6818C47.4485 40.8693 47.3775 41.0298 47.2354 41.1634C47.0962 41.2969 46.9286 41.3636 46.7326 41.3636ZM51.5405 49.1364C50.995 49.1364 50.5135 48.9986 50.0959 48.723C49.6783 48.4446 49.3516 48.0526 49.1158 47.5469C48.88 47.0384 48.7621 46.4375 48.7621 45.7443C48.7621 45.0568 48.88 44.4602 49.1158 43.9545C49.3516 43.4489 49.6797 43.0582 50.1001 42.7827C50.5206 42.5071 51.0064 42.3693 51.5575 42.3693C51.9837 42.3693 52.3203 42.4403 52.5675 42.5824C52.8175 42.7216 53.0078 42.8807 53.1385 43.0597C53.272 43.2358 53.3757 43.3807 53.4496 43.4943H53.5348V42.4545H54.5405V49H53.5689V47.9943H53.4496C53.3757 48.1136 53.2706 48.2642 53.1342 48.446C52.9979 48.625 52.8033 48.7855 52.5504 48.9276C52.2976 49.0668 51.9609 49.1364 51.5405 49.1364ZM51.6768 48.233C52.0803 48.233 52.4212 48.1278 52.6996 47.9176C52.978 47.7045 53.1896 47.4105 53.3345 47.0355C53.4794 46.6577 53.5518 46.2216 53.5518 45.7273C53.5518 45.2386 53.4808 44.8111 53.3388 44.4446C53.1967 44.0753 52.9865 43.7884 52.7081 43.5838C52.4297 43.3764 52.0859 43.2727 51.6768 43.2727C51.2507 43.2727 50.8956 43.3821 50.6115 43.6009C50.3303 43.8168 50.1186 44.1108 49.9766 44.483C49.8374 44.8523 49.7678 45.267 49.7678 45.7273C49.7678 46.1932 49.8388 46.6165 49.9808 46.9972C50.1257 47.375 50.3388 47.6761 50.62 47.9006C50.9041 48.1222 51.2564 48.233 51.6768 48.233ZM59.3686 42.4545V43.3068H55.9766V42.4545H59.3686ZM56.9652 40.8864H57.9709V47.125C57.9709 47.4091 58.0121 47.6222 58.0945 47.7642C58.1797 47.9034 58.2876 47.9972 58.4183 48.0455C58.5518 48.0909 58.6925 48.1136 58.8402 48.1136C58.951 48.1136 59.0419 48.108 59.1129 48.0966C59.1839 48.0824 59.2408 48.071 59.2834 48.0625L59.4879 48.9659C59.4197 48.9915 59.3246 49.017 59.2024 49.0426C59.0803 49.071 58.9254 49.0852 58.7379 49.0852C58.4538 49.0852 58.1754 49.0241 57.9027 48.902C57.6328 48.7798 57.4084 48.5938 57.2294 48.3438C57.0533 48.0938 56.9652 47.7784 56.9652 47.3977V40.8864ZM63.5554 49.1364C62.9247 49.1364 62.3807 48.9972 61.9233 48.7188C61.4688 48.4375 61.1179 48.0455 60.8707 47.5426C60.6264 47.0369 60.5043 46.4489 60.5043 45.7784C60.5043 45.108 60.6264 44.517 60.8707 44.0057C61.1179 43.4915 61.4616 43.0909 61.902 42.804C62.3452 42.5142 62.8622 42.3693 63.4531 42.3693C63.794 42.3693 64.1307 42.4261 64.4631 42.5398C64.7955 42.6534 65.098 42.8381 65.3707 43.0938C65.6435 43.3466 65.8608 43.6818 66.0227 44.0994C66.1847 44.517 66.2656 45.0312 66.2656 45.642V46.0682H61.2202V45.1989H65.2429C65.2429 44.8295 65.169 44.5 65.0213 44.2102C64.8764 43.9205 64.669 43.6918 64.3991 43.5241C64.1321 43.3565 63.8168 43.2727 63.4531 43.2727C63.0526 43.2727 62.706 43.3722 62.4134 43.571C62.1236 43.767 61.9006 44.0227 61.7443 44.3381C61.5881 44.6534 61.5099 44.9915 61.5099 45.3523V45.9318C61.5099 46.4261 61.5952 46.8452 61.7656 47.1889C61.9389 47.5298 62.179 47.7898 62.4858 47.9688C62.7926 48.1449 63.1491 48.233 63.5554 48.233C63.8196 48.233 64.0582 48.196 64.2713 48.1222C64.4872 48.0455 64.6733 47.9318 64.8295 47.7812C64.9858 47.6278 65.1065 47.4375 65.1918 47.2102L66.1634 47.483C66.0611 47.8125 65.8892 48.1023 65.6477 48.3523C65.4063 48.5994 65.108 48.7926 64.7528 48.9318C64.3977 49.0682 63.9986 49.1364 63.5554 49.1364Z" fill="#1C1C1C"/>
<path d="M104.477 50.0909V39.1818H105.176V50.0909H104.477ZM106.83 42.4545C106.778 42.0227 106.571 41.6875 106.207 41.4489C105.844 41.2102 105.398 41.0909 104.869 41.0909C104.483 41.0909 104.145 41.1534 103.855 41.2784C103.568 41.4034 103.344 41.5753 103.182 41.794C103.023 42.0128 102.943 42.2614 102.943 42.5398C102.943 42.7727 102.999 42.973 103.109 43.1406C103.223 43.3054 103.368 43.4432 103.544 43.554C103.72 43.6619 103.905 43.7514 104.098 43.8224C104.291 43.8906 104.469 43.946 104.631 43.9886L105.517 44.2273C105.744 44.2869 105.997 44.3693 106.276 44.4744C106.557 44.5795 106.825 44.723 107.081 44.9048C107.339 45.0838 107.553 45.3139 107.72 45.5952C107.888 45.8764 107.972 46.2216 107.972 46.6307C107.972 47.1023 107.848 47.5284 107.601 47.9091C107.357 48.2898 106.999 48.5923 106.527 48.8168C106.058 49.0412 105.489 49.1534 104.818 49.1534C104.193 49.1534 103.652 49.0526 103.195 48.8509C102.74 48.6491 102.382 48.3679 102.121 48.0071C101.862 47.6463 101.716 47.2273 101.682 46.75H102.773C102.801 47.0795 102.912 47.3523 103.105 47.5682C103.301 47.7812 103.548 47.9403 103.847 48.0455C104.148 48.1477 104.472 48.1989 104.818 48.1989C105.222 48.1989 105.584 48.1335 105.905 48.0028C106.226 47.8693 106.48 47.6847 106.668 47.4489C106.855 47.2102 106.949 46.9318 106.949 46.6136C106.949 46.3239 106.868 46.0881 106.706 45.9062C106.544 45.7244 106.331 45.5767 106.067 45.4631C105.803 45.3494 105.517 45.25 105.21 45.1648L104.136 44.858C103.455 44.6619 102.915 44.3821 102.517 44.0185C102.119 43.6548 101.92 43.179 101.92 42.5909C101.92 42.1023 102.053 41.6761 102.317 41.3125C102.584 40.946 102.942 40.6619 103.391 40.4602C103.842 40.2557 104.347 40.1534 104.903 40.1534C105.466 40.1534 105.966 40.2543 106.403 40.456C106.841 40.6548 107.188 40.9276 107.443 41.2741C107.702 41.6207 107.838 42.0142 107.852 42.4545H106.83ZM112.351 40.2727V49H111.294V41.8068H111.226C111.186 41.8864 111.084 41.9773 110.919 42.0795C110.755 42.179 110.542 42.267 110.28 42.3438C110.019 42.4176 109.721 42.4545 109.385 42.4545V41.5682C109.723 41.5682 110.016 41.5071 110.263 41.3849C110.51 41.2628 110.716 41.1193 110.881 40.9545C111.049 40.7898 111.175 40.6406 111.26 40.5071C111.348 40.3736 111.4 40.2955 111.414 40.2727H112.351ZM114.716 46.8182H115.79C115.821 47.1136 115.922 47.3636 116.093 47.5682C116.266 47.7699 116.49 47.9233 116.766 48.0284C117.042 48.1307 117.347 48.1818 117.682 48.1818C118.046 48.1818 118.373 48.1207 118.662 47.9986C118.952 47.8764 119.182 47.6946 119.353 47.4531C119.523 47.2088 119.608 46.9062 119.608 46.5455C119.608 46.2301 119.534 45.9375 119.387 45.6676C119.239 45.3949 119.002 45.1747 118.675 45.0071C118.348 44.8395 117.915 44.7557 117.375 44.7557H116.676V43.9034L118.858 41.2784V41.2102H115.142V40.2727H120.307V41.0398L117.972 43.8693V43.9375C118.347 43.9545 118.696 44.0312 119.02 44.1676C119.347 44.304 119.631 44.4886 119.873 44.7216C120.117 44.9545 120.307 45.2259 120.444 45.5355C120.58 45.8452 120.648 46.1818 120.648 46.5455C120.648 47.0426 120.52 47.4858 120.265 47.875C120.012 48.2614 119.661 48.5653 119.212 48.7869C118.766 49.0085 118.25 49.1193 117.665 49.1193C117.148 49.1193 116.672 49.0284 116.238 48.8466C115.803 48.6648 115.449 48.402 115.176 48.0582C114.904 47.7145 114.75 47.3011 114.716 46.8182ZM125.115 49.1193C124.615 49.1193 124.165 49.0199 123.764 48.821C123.364 48.6222 123.043 48.3494 122.801 48.0028C122.56 47.6562 122.428 47.2614 122.405 46.8182H123.428C123.467 47.2131 123.646 47.5398 123.964 47.7983C124.286 48.054 124.669 48.1818 125.115 48.1818C125.473 48.1818 125.791 48.098 126.07 47.9304C126.351 47.7628 126.571 47.5327 126.73 47.2401C126.892 46.9446 126.973 46.6108 126.973 46.2386C126.973 45.858 126.889 45.5185 126.722 45.2202C126.557 44.919 126.33 44.6818 126.04 44.5085C125.75 44.3352 125.419 44.2472 125.047 44.2443C124.78 44.2415 124.506 44.2827 124.224 44.3679C123.943 44.4503 123.712 44.5568 123.53 44.6875L122.541 44.5682L123.07 40.2727H127.604V41.2102H123.956L123.649 43.7841H123.7C123.879 43.642 124.104 43.5241 124.374 43.4304C124.643 43.3366 124.925 43.2898 125.217 43.2898C125.751 43.2898 126.227 43.4176 126.645 43.6733C127.065 43.9261 127.395 44.2727 127.634 44.7131C127.875 45.1534 127.996 45.6562 127.996 46.2216C127.996 46.7784 127.871 47.2756 127.621 47.7131C127.374 48.1477 127.033 48.4915 126.598 48.7443C126.163 48.9943 125.669 49.1193 125.115 49.1193ZM130.11 49.0682C129.9 49.0682 129.72 48.9929 129.569 48.8423C129.419 48.6918 129.343 48.5114 129.343 48.3011C129.343 48.0909 129.419 47.9105 129.569 47.7599C129.72 47.6094 129.9 47.5341 130.11 47.5341C130.321 47.5341 130.501 47.6094 130.652 47.7599C130.802 47.9105 130.877 48.0909 130.877 48.3011C130.877 48.4403 130.842 48.5682 130.771 48.6847C130.703 48.8011 130.61 48.8949 130.494 48.9659C130.38 49.0341 130.252 49.0682 130.11 49.0682ZM134.418 40.2727V49H133.361V41.8068H133.293C133.253 41.8864 133.151 41.9773 132.986 42.0795C132.821 42.179 132.608 42.267 132.347 42.3438C132.085 42.4176 131.787 42.4545 131.452 42.4545V41.5682C131.79 41.5682 132.082 41.5071 132.33 41.3849C132.577 41.2628 132.783 41.1193 132.947 40.9545C133.115 40.7898 133.241 40.6406 133.327 40.5071C133.415 40.3736 133.466 40.2955 133.48 40.2727H134.418ZM139.714 49.1193C139.129 49.1193 138.612 49.0156 138.163 48.8082C137.717 48.598 137.369 48.3097 137.119 47.9432C136.869 47.5739 136.746 47.1534 136.749 46.6818C136.746 46.3125 136.818 45.9716 136.966 45.6591C137.114 45.3437 137.315 45.081 137.571 44.8707C137.83 44.6577 138.118 44.5227 138.436 44.4659V44.4148C138.018 44.3068 137.686 44.0724 137.439 43.7116C137.192 43.348 137.07 42.9347 137.072 42.4716C137.07 42.0284 137.182 41.6321 137.409 41.2827C137.636 40.9332 137.949 40.6577 138.347 40.456C138.747 40.2543 139.203 40.1534 139.714 40.1534C140.22 40.1534 140.672 40.2543 141.07 40.456C141.467 40.6577 141.78 40.9332 142.007 41.2827C142.237 41.6321 142.354 42.0284 142.357 42.4716C142.354 42.9347 142.227 43.348 141.977 43.7116C141.73 44.0724 141.402 44.3068 140.993 44.4148V44.4659C141.308 44.5227 141.592 44.6577 141.845 44.8707C142.098 45.081 142.3 45.3437 142.45 45.6591C142.601 45.9716 142.678 46.3125 142.68 46.6818C142.678 47.1534 142.55 47.5739 142.297 47.9432C142.047 48.3097 141.699 48.598 141.253 48.8082C140.81 49.0156 140.297 49.1193 139.714 49.1193ZM139.714 48.1818C140.109 48.1818 140.45 48.1179 140.737 47.9901C141.024 47.8622 141.246 47.6818 141.402 47.4489C141.558 47.2159 141.638 46.9432 141.641 46.6307C141.638 46.3011 141.553 46.0099 141.385 45.7571C141.217 45.5043 140.989 45.3054 140.699 45.1605C140.412 45.0156 140.084 44.9432 139.714 44.9432C139.342 44.9432 139.01 45.0156 138.717 45.1605C138.428 45.3054 138.199 45.5043 138.031 45.7571C137.866 46.0099 137.786 46.3011 137.788 46.6307C137.786 46.9432 137.861 47.2159 138.014 47.4489C138.17 47.6818 138.393 47.8622 138.683 47.9901C138.973 48.1179 139.317 48.1818 139.714 48.1818ZM139.714 44.0398C140.027 44.0398 140.304 43.9773 140.545 43.8523C140.79 43.7273 140.982 43.5526 141.121 43.3281C141.26 43.1037 141.331 42.8409 141.334 42.5398C141.331 42.2443 141.261 41.9872 141.125 41.7685C140.989 41.5469 140.8 41.3764 140.558 41.2571C140.317 41.1349 140.036 41.0739 139.714 41.0739C139.388 41.0739 139.102 41.1349 138.858 41.2571C138.614 41.3764 138.425 41.5469 138.291 41.7685C138.158 41.9872 138.092 42.2443 138.095 42.5398C138.092 42.8409 138.159 43.1037 138.295 43.3281C138.435 43.5526 138.626 43.7273 138.871 43.8523C139.115 43.9773 139.396 44.0398 139.714 44.0398Z" fill="#1C1C1C"/>
<path d="M15 79C15 80.6569 13.6569 82 12 82C10.3431 82 9 80.6569 9 79C9 77.3431 10.3431 76 12 76C13.6569 76 15 77.3431 15 79Z" fill="#95A4FC"/>
<path d="M25.8295 76.4545C25.7784 76.0227 25.571 75.6875 25.2074 75.4489C24.8438 75.2102 24.3977 75.0909 23.8693 75.0909C23.483 75.0909 23.1449 75.1534 22.8551 75.2784C22.5682 75.4034 22.3438 75.5753 22.1818 75.794C22.0227 76.0128 21.9432 76.2614 21.9432 76.5398C21.9432 76.7727 21.9986 76.973 22.1094 77.1406C22.223 77.3054 22.3679 77.4432 22.544 77.554C22.7202 77.6619 22.9048 77.7514 23.098 77.8224C23.2912 77.8906 23.4688 77.946 23.6307 77.9886L24.517 78.2273C24.7443 78.2869 24.9972 78.3693 25.2756 78.4744C25.5568 78.5795 25.8253 78.723 26.081 78.9048C26.3395 79.0838 26.5526 79.3139 26.7202 79.5952C26.8878 79.8764 26.9716 80.2216 26.9716 80.6307C26.9716 81.1023 26.848 81.5284 26.6009 81.9091C26.3565 82.2898 25.9986 82.5923 25.527 82.8168C25.0582 83.0412 24.4886 83.1534 23.8182 83.1534C23.1932 83.1534 22.652 83.0526 22.1946 82.8509C21.7401 82.6491 21.3821 82.3679 21.1207 82.0071C20.8622 81.6463 20.7159 81.2273 20.6818 80.75H21.7727C21.8011 81.0795 21.9119 81.3523 22.1051 81.5682C22.3011 81.7812 22.5483 81.9403 22.8466 82.0455C23.1477 82.1477 23.4716 82.1989 23.8182 82.1989C24.2216 82.1989 24.5838 82.1335 24.9048 82.0028C25.2259 81.8693 25.4801 81.6847 25.6676 81.4489C25.8551 81.2102 25.9489 80.9318 25.9489 80.6136C25.9489 80.3239 25.8679 80.0881 25.706 79.9062C25.544 79.7244 25.331 79.5767 25.0668 79.4631C24.8026 79.3494 24.517 79.25 24.2102 79.1648L23.1364 78.858C22.4545 78.6619 21.9148 78.3821 21.517 78.0185C21.1193 77.6548 20.9205 77.179 20.9205 76.5909C20.9205 76.1023 21.0526 75.6761 21.3168 75.3125C21.5838 74.946 21.9418 74.6619 22.3906 74.4602C22.8423 74.2557 23.3466 74.1534 23.9034 74.1534C24.4659 74.1534 24.9659 74.2543 25.4034 74.456C25.8409 74.6548 26.1875 74.9276 26.4432 75.2741C26.7017 75.6207 26.8381 76.0142 26.8523 76.4545H25.8295ZM28.5728 85.4545V76.4545H29.5444V77.4943H29.6637C29.7376 77.3807 29.8398 77.2358 29.9705 77.0597C30.104 76.8807 30.2944 76.7216 30.5415 76.5824C30.7915 76.4403 31.1296 76.3693 31.5558 76.3693C32.1069 76.3693 32.5927 76.5071 33.0131 76.7827C33.4336 77.0582 33.7617 77.4489 33.9975 77.9545C34.2333 78.4602 34.3512 79.0568 34.3512 79.7443C34.3512 80.4375 34.2333 81.0384 33.9975 81.5469C33.7617 82.0526 33.435 82.4446 33.0174 82.723C32.5998 82.9986 32.1183 83.1364 31.5728 83.1364C31.1523 83.1364 30.8157 83.0668 30.5629 82.9276C30.31 82.7855 30.1154 82.625 29.979 82.446C29.8427 82.2642 29.7376 82.1136 29.6637 81.9943H29.5785V85.4545H28.5728ZM29.5614 79.7273C29.5614 80.2216 29.6339 80.6577 29.7788 81.0355C29.9237 81.4105 30.1353 81.7045 30.4137 81.9176C30.6921 82.1278 31.033 82.233 31.4364 82.233C31.8569 82.233 32.2077 82.1222 32.489 81.9006C32.7731 81.6761 32.9862 81.375 33.1282 80.9972C33.2731 80.6165 33.3455 80.1932 33.3455 79.7273C33.3455 79.267 33.2745 78.8523 33.1325 78.483C32.9933 78.1108 32.7816 77.8168 32.4975 77.6009C32.2163 77.3821 31.8626 77.2727 31.4364 77.2727C31.0273 77.2727 30.6836 77.3764 30.4052 77.5838C30.1268 77.7884 29.9165 78.0753 29.7745 78.4446C29.6325 78.8111 29.5614 79.2386 29.5614 79.7273ZM38.5444 83.1364C37.9535 83.1364 37.435 82.9957 36.989 82.7145C36.5458 82.4332 36.1992 82.0398 35.9492 81.5341C35.7021 81.0284 35.5785 80.4375 35.5785 79.7614C35.5785 79.0795 35.7021 78.4844 35.9492 77.9759C36.1992 77.4673 36.5458 77.0724 36.989 76.7912C37.435 76.5099 37.9535 76.3693 38.5444 76.3693C39.1353 76.3693 39.6523 76.5099 40.0955 76.7912C40.5415 77.0724 40.8881 77.4673 41.1353 77.9759C41.3853 78.4844 41.5103 79.0795 41.5103 79.7614C41.5103 80.4375 41.3853 81.0284 41.1353 81.5341C40.8881 82.0398 40.5415 82.4332 40.0955 82.7145C39.6523 82.9957 39.1353 83.1364 38.5444 83.1364ZM38.5444 82.233C38.9933 82.233 39.3626 82.1179 39.6523 81.8878C39.9421 81.6577 40.1566 81.3551 40.2958 80.9801C40.435 80.6051 40.5046 80.1989 40.5046 79.7614C40.5046 79.3239 40.435 78.9162 40.2958 78.5384C40.1566 78.1605 39.9421 77.8551 39.6523 77.6222C39.3626 77.3892 38.9933 77.2727 38.5444 77.2727C38.0955 77.2727 37.7262 77.3892 37.4364 77.6222C37.1467 77.8551 36.9322 78.1605 36.793 78.5384C36.6538 78.9162 36.5842 79.3239 36.5842 79.7614C36.5842 80.1989 36.6538 80.6051 36.793 80.9801C36.9322 81.3551 37.1467 81.6577 37.4364 81.8878C37.7262 82.1179 38.0955 82.233 38.5444 82.233ZM44.0511 79.0625V83H43.0455V76.4545H44.017V77.4773H44.1023C44.2557 77.1449 44.4886 76.8778 44.8011 76.6761C45.1136 76.4716 45.517 76.3693 46.0114 76.3693C46.4545 76.3693 46.8423 76.4602 47.1747 76.642C47.5071 76.821 47.7656 77.0938 47.9503 77.4602C48.1349 77.8239 48.2273 78.2841 48.2273 78.8409V83H47.2216V78.9091C47.2216 78.3949 47.0881 77.9943 46.821 77.7074C46.554 77.4176 46.1875 77.2727 45.7216 77.2727C45.4006 77.2727 45.1136 77.3423 44.8608 77.4815C44.6108 77.6207 44.4134 77.8239 44.2685 78.0909C44.1236 78.358 44.0511 78.6818 44.0511 79.0625ZM54.7013 77.9205L53.7979 78.1761C53.7411 78.0256 53.6573 77.8793 53.5465 77.7372C53.4386 77.5923 53.2908 77.473 53.1033 77.3793C52.9158 77.2855 52.6758 77.2386 52.3832 77.2386C51.9826 77.2386 51.6488 77.331 51.3817 77.5156C51.1175 77.6974 50.9854 77.929 50.9854 78.2102C50.9854 78.4602 51.0763 78.6577 51.2582 78.8026C51.44 78.9474 51.7241 79.0682 52.1104 79.1648L53.082 79.4034C53.6673 79.5455 54.1033 79.7628 54.3903 80.0554C54.6772 80.3452 54.8207 80.7187 54.8207 81.1761C54.8207 81.5511 54.7127 81.8864 54.4968 82.1818C54.2837 82.4773 53.9854 82.7102 53.6019 82.8807C53.2184 83.0511 52.7724 83.1364 52.2638 83.1364C51.5962 83.1364 51.0437 82.9915 50.6062 82.7017C50.1687 82.4119 49.8917 81.9886 49.7752 81.4318L50.7298 81.1932C50.8207 81.5455 50.9925 81.8097 51.2454 81.9858C51.5011 82.1619 51.8349 82.25 52.2468 82.25C52.7156 82.25 53.0877 82.1506 53.3633 81.9517C53.6417 81.75 53.7809 81.5085 53.7809 81.2273C53.7809 81 53.7013 80.8097 53.5423 80.6562C53.3832 80.5 53.1388 80.3835 52.8093 80.3068L51.7184 80.0511C51.119 79.9091 50.6786 79.6889 50.3974 79.3906C50.119 79.0895 49.9798 78.7131 49.9798 78.2614C49.9798 77.892 50.0835 77.5653 50.2908 77.2812C50.5011 76.9972 50.7866 76.7741 51.1474 76.6122C51.511 76.4503 51.9229 76.3693 52.3832 76.3693C53.0309 76.3693 53.5394 76.5114 53.9087 76.7955C54.2809 77.0795 54.5451 77.4545 54.7013 77.9205ZM58.9936 83.1364C58.4027 83.1364 57.8842 82.9957 57.4382 82.7145C56.995 82.4332 56.6484 82.0398 56.3984 81.5341C56.1513 81.0284 56.0277 80.4375 56.0277 79.7614C56.0277 79.0795 56.1513 78.4844 56.3984 77.9759C56.6484 77.4673 56.995 77.0724 57.4382 76.7912C57.8842 76.5099 58.4027 76.3693 58.9936 76.3693C59.5845 76.3693 60.1016 76.5099 60.5447 76.7912C60.9908 77.0724 61.3374 77.4673 61.5845 77.9759C61.8345 78.4844 61.9595 79.0795 61.9595 79.7614C61.9595 80.4375 61.8345 81.0284 61.5845 81.5341C61.3374 82.0398 60.9908 82.4332 60.5447 82.7145C60.1016 82.9957 59.5845 83.1364 58.9936 83.1364ZM58.9936 82.233C59.4425 82.233 59.8118 82.1179 60.1016 81.8878C60.3913 81.6577 60.6058 81.3551 60.745 80.9801C60.8842 80.6051 60.9538 80.1989 60.9538 79.7614C60.9538 79.3239 60.8842 78.9162 60.745 78.5384C60.6058 78.1605 60.3913 77.8551 60.1016 77.6222C59.8118 77.3892 59.4425 77.2727 58.9936 77.2727C58.5447 77.2727 58.1754 77.3892 57.8857 77.6222C57.5959 77.8551 57.3814 78.1605 57.2422 78.5384C57.103 78.9162 57.0334 79.3239 57.0334 79.7614C57.0334 80.1989 57.103 80.6051 57.2422 80.9801C57.3814 81.3551 57.5959 81.6577 57.8857 81.8878C58.1754 82.1179 58.5447 82.233 58.9936 82.233ZM63.4947 83V76.4545H64.4663V77.4432H64.5344C64.6538 77.1193 64.8697 76.8565 65.1822 76.6548C65.4947 76.4531 65.8469 76.3523 66.239 76.3523C66.3129 76.3523 66.4052 76.3537 66.516 76.3565C66.6268 76.3594 66.7106 76.3636 66.7674 76.3693V77.392C66.7333 77.3835 66.6552 77.3707 66.533 77.3537C66.4137 77.3338 66.2873 77.3239 66.1538 77.3239C65.8356 77.3239 65.5515 77.3906 65.3015 77.5241C65.0543 77.6548 64.8583 77.8366 64.7134 78.0696C64.5714 78.2997 64.5004 78.5625 64.5004 78.858V83H63.4947ZM70.5046 83.1364C69.8739 83.1364 69.3299 82.9972 68.8725 82.7188C68.418 82.4375 68.0671 82.0455 67.82 81.5426C67.5756 81.0369 67.4535 80.4489 67.4535 79.7784C67.4535 79.108 67.5756 78.517 67.82 78.0057C68.0671 77.4915 68.4109 77.0909 68.8512 76.804C69.2944 76.5142 69.8114 76.3693 70.4023 76.3693C70.7433 76.3693 71.0799 76.4261 71.4123 76.5398C71.7447 76.6534 72.0472 76.8381 72.32 77.0938C72.5927 77.3466 72.81 77.6818 72.9719 78.0994C73.1339 78.517 73.2148 79.0312 73.2148 79.642V80.0682H68.1694V79.1989H72.1921C72.1921 78.8295 72.1183 78.5 71.9705 78.2102C71.8256 77.9205 71.6183 77.6918 71.3484 77.5241C71.0813 77.3565 70.766 77.2727 70.4023 77.2727C70.0018 77.2727 69.6552 77.3722 69.3626 77.571C69.0728 77.767 68.8498 78.0227 68.6935 78.3381C68.5373 78.6534 68.4592 78.9915 68.4592 79.3523V79.9318C68.4592 80.4261 68.5444 80.8452 68.7148 81.1889C68.8881 81.5298 69.1282 81.7898 69.435 81.9688C69.7418 82.1449 70.0984 82.233 70.5046 82.233C70.7688 82.233 71.0075 82.196 71.2205 82.1222C71.4364 82.0455 71.6225 81.9318 71.7788 81.7812C71.935 81.6278 72.0558 81.4375 72.141 81.2102L73.1126 81.483C73.0103 81.8125 72.8384 82.1023 72.5969 82.3523C72.3555 82.5994 72.0572 82.7926 71.7021 82.9318C71.3469 83.0682 70.9478 83.1364 70.5046 83.1364ZM77.2163 83.1364C76.6708 83.1364 76.1893 82.9986 75.7717 82.723C75.354 82.4446 75.0273 82.0526 74.7915 81.5469C74.5558 81.0384 74.4379 80.4375 74.4379 79.7443C74.4379 79.0568 74.5558 78.4602 74.7915 77.9545C75.0273 77.4489 75.3555 77.0582 75.7759 76.7827C76.1964 76.5071 76.6822 76.3693 77.2333 76.3693C77.6594 76.3693 77.9961 76.4403 78.2433 76.5824C78.4933 76.7216 78.6836 76.8807 78.8143 77.0597C78.9478 77.2358 79.0515 77.3807 79.1254 77.4943H79.2106V74.2727H80.2163V83H79.2447V81.9943H79.1254C79.0515 82.1136 78.9464 82.2642 78.81 82.446C78.6737 82.625 78.479 82.7855 78.2262 82.9276C77.9734 83.0668 77.6367 83.1364 77.2163 83.1364ZM77.3526 82.233C77.756 82.233 78.0969 82.1278 78.3754 81.9176C78.6538 81.7045 78.8654 81.4105 79.0103 81.0355C79.1552 80.6577 79.2276 80.2216 79.2276 79.7273C79.2276 79.2386 79.1566 78.8111 79.0146 78.4446C78.8725 78.0753 78.6623 77.7884 78.3839 77.5838C78.1055 77.3764 77.7617 77.2727 77.3526 77.2727C76.9265 77.2727 76.5714 77.3821 76.2873 77.6009C76.006 77.8168 75.7944 78.1108 75.6523 78.483C75.5131 78.8523 75.4435 79.267 75.4435 79.7273C75.4435 80.1932 75.5146 80.6165 75.6566 80.9972C75.8015 81.375 76.0146 81.6761 76.2958 81.9006C76.5799 82.1222 76.9322 82.233 77.3526 82.233Z" fill="#1C1C1C"/>
<path d="M104.477 84.0909V73.1818H105.176V84.0909H104.477ZM106.83 76.4545C106.778 76.0227 106.571 75.6875 106.207 75.4489C105.844 75.2102 105.398 75.0909 104.869 75.0909C104.483 75.0909 104.145 75.1534 103.855 75.2784C103.568 75.4034 103.344 75.5753 103.182 75.794C103.023 76.0128 102.943 76.2614 102.943 76.5398C102.943 76.7727 102.999 76.973 103.109 77.1406C103.223 77.3054 103.368 77.4432 103.544 77.554C103.72 77.6619 103.905 77.7514 104.098 77.8224C104.291 77.8906 104.469 77.946 104.631 77.9886L105.517 78.2273C105.744 78.2869 105.997 78.3693 106.276 78.4744C106.557 78.5795 106.825 78.723 107.081 78.9048C107.339 79.0838 107.553 79.3139 107.72 79.5952C107.888 79.8764 107.972 80.2216 107.972 80.6307C107.972 81.1023 107.848 81.5284 107.601 81.9091C107.357 82.2898 106.999 82.5923 106.527 82.8168C106.058 83.0412 105.489 83.1534 104.818 83.1534C104.193 83.1534 103.652 83.0526 103.195 82.8509C102.74 82.6491 102.382 82.3679 102.121 82.0071C101.862 81.6463 101.716 81.2273 101.682 80.75H102.773C102.801 81.0795 102.912 81.3523 103.105 81.5682C103.301 81.7812 103.548 81.9403 103.847 82.0455C104.148 82.1477 104.472 82.1989 104.818 82.1989C105.222 82.1989 105.584 82.1335 105.905 82.0028C106.226 81.8693 106.48 81.6847 106.668 81.4489C106.855 81.2102 106.949 80.9318 106.949 80.6136C106.949 80.3239 106.868 80.0881 106.706 79.9062C106.544 79.7244 106.331 79.5767 106.067 79.4631C105.803 79.3494 105.517 79.25 105.21 79.1648L104.136 78.858C103.455 78.6619 102.915 78.3821 102.517 78.0185C102.119 77.6548 101.92 77.179 101.92 76.5909C101.92 76.1023 102.053 75.6761 102.317 75.3125C102.584 74.946 102.942 74.6619 103.391 74.4602C103.842 74.2557 104.347 74.1534 104.903 74.1534C105.466 74.1534 105.966 74.2543 106.403 74.456C106.841 74.6548 107.188 74.9276 107.443 75.2741C107.702 75.6207 107.838 76.0142 107.852 76.4545H106.83ZM112.351 74.2727V83H111.294V75.8068H111.226C111.186 75.8864 111.084 75.9773 110.919 76.0795C110.755 76.179 110.542 76.267 110.28 76.3438C110.019 76.4176 109.721 76.4545 109.385 76.4545V75.5682C109.723 75.5682 110.016 75.5071 110.263 75.3849C110.51 75.2628 110.716 75.1193 110.881 74.9545C111.049 74.7898 111.175 74.6406 111.26 74.5071C111.348 74.3736 111.4 74.2955 111.414 74.2727H112.351ZM117.58 83.1193C117.08 83.1193 116.63 83.0199 116.229 82.821C115.828 82.6222 115.507 82.3494 115.266 82.0028C115.025 81.6562 114.892 81.2614 114.87 80.8182H115.892C115.932 81.2131 116.111 81.5398 116.429 81.7983C116.75 82.054 117.134 82.1818 117.58 82.1818C117.938 82.1818 118.256 82.098 118.534 81.9304C118.816 81.7628 119.036 81.5327 119.195 81.2401C119.357 80.9446 119.438 80.6108 119.438 80.2386C119.438 79.858 119.354 79.5185 119.186 79.2202C119.022 78.919 118.794 78.6818 118.505 78.5085C118.215 78.3352 117.884 78.2472 117.512 78.2443C117.245 78.2415 116.971 78.2827 116.689 78.3679C116.408 78.4503 116.176 78.5568 115.995 78.6875L115.006 78.5682L115.534 74.2727H120.069V75.2102H116.421L116.114 77.7841H116.165C116.344 77.642 116.569 77.5241 116.838 77.4304C117.108 77.3366 117.39 77.2898 117.682 77.2898C118.216 77.2898 118.692 77.4176 119.11 77.6733C119.53 77.9261 119.86 78.2727 120.098 78.7131C120.34 79.1534 120.461 79.6562 120.461 80.2216C120.461 80.7784 120.336 81.2756 120.086 81.7131C119.838 82.1477 119.498 82.4915 119.063 82.7443C118.628 82.9943 118.134 83.1193 117.58 83.1193ZM121.949 81.2102V80.3409L125.443 74.2727H126.483L123.074 80.2045V80.2727H128.256V81.2102H121.949ZM126.057 83V80.9545V80.5412V77.5455H127.062V83H126.057ZM130.192 83.0682C129.982 83.0682 129.802 82.9929 129.651 82.8423C129.501 82.6918 129.425 82.5114 129.425 82.3011C129.425 82.0909 129.501 81.9105 129.651 81.7599C129.802 81.6094 129.982 81.5341 130.192 81.5341C130.403 81.5341 130.583 81.6094 130.734 81.7599C130.884 81.9105 130.96 82.0909 130.96 82.3011C130.96 82.4403 130.924 82.5682 130.853 82.6847C130.785 82.8011 130.692 82.8949 130.576 82.9659C130.462 83.0341 130.335 83.0682 130.192 83.0682ZM135.289 83.1193C134.647 83.1193 134.1 82.9446 133.648 82.5952C133.197 82.2429 132.852 81.733 132.613 81.0653C132.374 80.3949 132.255 79.5852 132.255 78.6364C132.255 77.6932 132.374 76.8878 132.613 76.2202C132.854 75.5497 133.201 75.0384 133.653 74.6861C134.107 74.331 134.653 74.1534 135.289 74.1534C135.925 74.1534 136.469 74.331 136.921 74.6861C137.376 75.0384 137.722 75.5497 137.961 76.2202C138.202 76.8878 138.323 77.6932 138.323 78.6364C138.323 79.5852 138.204 80.3949 137.965 81.0653C137.727 81.733 137.381 82.2429 136.93 82.5952C136.478 82.9446 135.931 83.1193 135.289 83.1193ZM135.289 82.1818C135.925 82.1818 136.42 81.875 136.772 81.2614C137.124 80.6477 137.3 79.7727 137.3 78.6364C137.3 77.8807 137.219 77.2372 137.058 76.706C136.898 76.1747 136.668 75.7699 136.367 75.4915C136.069 75.2131 135.71 75.0739 135.289 75.0739C134.658 75.0739 134.165 75.3849 133.81 76.0071C133.455 76.6264 133.278 77.5028 133.278 78.6364C133.278 79.392 133.357 80.0341 133.516 80.5625C133.675 81.0909 133.904 81.4929 134.202 81.7685C134.504 82.044 134.866 82.1818 135.289 82.1818ZM139.942 83V82.233L142.823 79.0795C143.161 78.7102 143.44 78.3892 143.658 78.1165C143.877 77.8409 144.039 77.5824 144.144 77.3409C144.252 77.0966 144.306 76.8409 144.306 76.5739C144.306 76.267 144.232 76.0014 144.085 75.777C143.94 75.5526 143.741 75.3793 143.488 75.2571C143.235 75.1349 142.951 75.0739 142.636 75.0739C142.3 75.0739 142.008 75.1435 141.758 75.2827C141.511 75.419 141.319 75.6108 141.183 75.858C141.049 76.1051 140.982 76.3949 140.982 76.7273H139.977C139.977 76.2159 140.094 75.767 140.33 75.3807C140.566 74.9943 140.887 74.6932 141.293 74.4773C141.702 74.2614 142.161 74.1534 142.67 74.1534C143.181 74.1534 143.634 74.2614 144.029 74.4773C144.424 74.6932 144.734 74.9844 144.958 75.3509C145.183 75.7173 145.295 76.125 145.295 76.5739C145.295 76.8949 145.237 77.2088 145.12 77.5156C145.006 77.8196 144.808 78.1591 144.523 78.5341C144.242 78.9062 143.852 79.3608 143.352 79.8977L141.391 81.9943V82.0625H145.448V83H139.942Z" fill="#1C1C1C"/>
<path d="M15 113C15 114.657 13.6569 116 12 116C10.3431 116 9 114.657 9 113C9 111.343 10.3431 110 12 110C13.6569 110 15 111.343 15 113Z" fill="#B1E3FF"/>
<path d="M21.0568 117V108.273H26.3239V109.21H22.1136V112.159H26.0511V113.097H22.1136V116.062H26.392V117H21.0568ZM31.8423 112.79V113.727H28.0241V112.79H31.8423ZM33.6119 117V110.455H34.5835V111.477H34.6687C34.805 111.128 35.0252 110.857 35.3292 110.663C35.6332 110.467 35.9982 110.369 36.4244 110.369C36.8562 110.369 37.2156 110.467 37.5025 110.663C37.7923 110.857 38.0181 111.128 38.18 111.477H38.2482C38.4158 111.139 38.6673 110.871 39.0025 110.672C39.3377 110.47 39.7397 110.369 40.2085 110.369C40.7937 110.369 41.2724 110.553 41.6445 110.919C42.0167 111.283 42.2028 111.849 42.2028 112.619V117H41.1971V112.619C41.1971 112.136 41.065 111.791 40.8008 111.584C40.5366 111.376 40.2255 111.273 39.8675 111.273C39.4073 111.273 39.0508 111.412 38.7979 111.69C38.5451 111.966 38.4187 112.315 38.4187 112.739V117H37.396V112.517C37.396 112.145 37.2752 111.845 37.0337 111.618C36.7923 111.388 36.4812 111.273 36.1005 111.273C35.8391 111.273 35.5948 111.342 35.3675 111.482C35.1431 111.621 34.9613 111.814 34.8221 112.061C34.6857 112.305 34.6175 112.588 34.6175 112.909V117H33.6119ZM46.5131 117.136C45.9677 117.136 45.4862 116.999 45.0685 116.723C44.6509 116.445 44.3242 116.053 44.0884 115.547C43.8526 115.038 43.7347 114.438 43.7347 113.744C43.7347 113.057 43.8526 112.46 44.0884 111.955C44.3242 111.449 44.6523 111.058 45.0728 110.783C45.4933 110.507 45.979 110.369 46.5302 110.369C46.9563 110.369 47.293 110.44 47.5401 110.582C47.7901 110.722 47.9805 110.881 48.1112 111.06C48.2447 111.236 48.3484 111.381 48.4222 111.494H48.5075V110.455H49.5131V117H48.5415V115.994H48.4222C48.3484 116.114 48.2433 116.264 48.1069 116.446C47.9705 116.625 47.7759 116.786 47.5231 116.928C47.2702 117.067 46.9336 117.136 46.5131 117.136ZM46.6495 116.233C47.0529 116.233 47.3938 116.128 47.6722 115.918C47.9506 115.705 48.1623 115.411 48.3072 115.036C48.4521 114.658 48.5245 114.222 48.5245 113.727C48.5245 113.239 48.4535 112.811 48.3114 112.445C48.1694 112.075 47.9592 111.788 47.6808 111.584C47.4023 111.376 47.0586 111.273 46.6495 111.273C46.2234 111.273 45.8683 111.382 45.5842 111.601C45.3029 111.817 45.0913 112.111 44.9492 112.483C44.81 112.852 44.7404 113.267 44.7404 113.727C44.7404 114.193 44.8114 114.616 44.9535 114.997C45.0984 115.375 45.3114 115.676 45.5927 115.901C45.8768 116.122 46.229 116.233 46.6495 116.233ZM51.4947 117V110.455H52.5004V117H51.4947ZM52.006 109.364C51.81 109.364 51.641 109.297 51.4989 109.163C51.3597 109.03 51.2901 108.869 51.2901 108.682C51.2901 108.494 51.3597 108.334 51.4989 108.2C51.641 108.067 51.81 108 52.006 108C52.2021 108 52.3697 108.067 52.5089 108.2C52.6509 108.334 52.7219 108.494 52.7219 108.682C52.7219 108.869 52.6509 109.03 52.5089 109.163C52.3697 109.297 52.2021 109.364 52.006 109.364ZM55.348 108.273V117H54.3423V108.273H55.348Z" fill="#1C1C1C"/>
<path d="M104.477 118.091V107.182H105.176V118.091H104.477ZM106.83 110.455C106.778 110.023 106.571 109.688 106.207 109.449C105.844 109.21 105.398 109.091 104.869 109.091C104.483 109.091 104.145 109.153 103.855 109.278C103.568 109.403 103.344 109.575 103.182 109.794C103.023 110.013 102.943 110.261 102.943 110.54C102.943 110.773 102.999 110.973 103.109 111.141C103.223 111.305 103.368 111.443 103.544 111.554C103.72 111.662 103.905 111.751 104.098 111.822C104.291 111.891 104.469 111.946 104.631 111.989L105.517 112.227C105.744 112.287 105.997 112.369 106.276 112.474C106.557 112.58 106.825 112.723 107.081 112.905C107.339 113.084 107.553 113.314 107.72 113.595C107.888 113.876 107.972 114.222 107.972 114.631C107.972 115.102 107.848 115.528 107.601 115.909C107.357 116.29 106.999 116.592 106.527 116.817C106.058 117.041 105.489 117.153 104.818 117.153C104.193 117.153 103.652 117.053 103.195 116.851C102.74 116.649 102.382 116.368 102.121 116.007C101.862 115.646 101.716 115.227 101.682 114.75H102.773C102.801 115.08 102.912 115.352 103.105 115.568C103.301 115.781 103.548 115.94 103.847 116.045C104.148 116.148 104.472 116.199 104.818 116.199C105.222 116.199 105.584 116.134 105.905 116.003C106.226 115.869 106.48 115.685 106.668 115.449C106.855 115.21 106.949 114.932 106.949 114.614C106.949 114.324 106.868 114.088 106.706 113.906C106.544 113.724 106.331 113.577 106.067 113.463C105.803 113.349 105.517 113.25 105.21 113.165L104.136 112.858C103.455 112.662 102.915 112.382 102.517 112.018C102.119 111.655 101.92 111.179 101.92 110.591C101.92 110.102 102.053 109.676 102.317 109.312C102.584 108.946 102.942 108.662 103.391 108.46C103.842 108.256 104.347 108.153 104.903 108.153C105.466 108.153 105.966 108.254 106.403 108.456C106.841 108.655 107.188 108.928 107.443 109.274C107.702 109.621 107.838 110.014 107.852 110.455H106.83ZM109.351 115.21V114.341L112.846 108.273H113.885L110.476 114.205V114.273H115.658V115.21H109.351ZM113.459 117V114.955V114.541V111.545H114.465V117H113.459ZM120.05 117.119C119.465 117.119 118.948 117.016 118.499 116.808C118.053 116.598 117.705 116.31 117.455 115.943C117.205 115.574 117.082 115.153 117.085 114.682C117.082 114.312 117.154 113.972 117.302 113.659C117.45 113.344 117.651 113.081 117.907 112.871C118.165 112.658 118.454 112.523 118.772 112.466V112.415C118.354 112.307 118.022 112.072 117.775 111.712C117.528 111.348 117.406 110.935 117.408 110.472C117.406 110.028 117.518 109.632 117.745 109.283C117.972 108.933 118.285 108.658 118.683 108.456C119.083 108.254 119.539 108.153 120.05 108.153C120.556 108.153 121.008 108.254 121.406 108.456C121.803 108.658 122.116 108.933 122.343 109.283C122.573 109.632 122.69 110.028 122.692 110.472C122.69 110.935 122.563 111.348 122.313 111.712C122.066 112.072 121.738 112.307 121.329 112.415V112.466C121.644 112.523 121.928 112.658 122.181 112.871C122.434 113.081 122.636 113.344 122.786 113.659C122.937 113.972 123.013 114.312 123.016 114.682C123.013 115.153 122.886 115.574 122.633 115.943C122.383 116.31 122.035 116.598 121.589 116.808C121.146 117.016 120.633 117.119 120.05 117.119ZM120.05 116.182C120.445 116.182 120.786 116.118 121.073 115.99C121.36 115.862 121.582 115.682 121.738 115.449C121.894 115.216 121.974 114.943 121.977 114.631C121.974 114.301 121.888 114.01 121.721 113.757C121.553 113.504 121.325 113.305 121.035 113.161C120.748 113.016 120.42 112.943 120.05 112.943C119.678 112.943 119.346 113.016 119.053 113.161C118.763 113.305 118.535 113.504 118.367 113.757C118.202 114.01 118.121 114.301 118.124 114.631C118.121 114.943 118.197 115.216 118.35 115.449C118.506 115.682 118.729 115.862 119.019 115.99C119.309 116.118 119.653 116.182 120.05 116.182ZM120.05 112.04C120.363 112.04 120.64 111.977 120.881 111.852C121.126 111.727 121.317 111.553 121.457 111.328C121.596 111.104 121.667 110.841 121.67 110.54C121.667 110.244 121.597 109.987 121.461 109.768C121.325 109.547 121.136 109.376 120.894 109.257C120.653 109.135 120.371 109.074 120.05 109.074C119.724 109.074 119.438 109.135 119.194 109.257C118.95 109.376 118.761 109.547 118.627 109.768C118.494 109.987 118.428 110.244 118.431 110.54C118.428 110.841 118.495 111.104 118.631 111.328C118.771 111.553 118.962 111.727 119.207 111.852C119.451 111.977 119.732 112.04 120.05 112.04ZM125.13 117.068C124.92 117.068 124.739 116.993 124.589 116.842C124.438 116.692 124.363 116.511 124.363 116.301C124.363 116.091 124.438 115.911 124.589 115.76C124.739 115.609 124.92 115.534 125.13 115.534C125.34 115.534 125.521 115.609 125.671 115.76C125.822 115.911 125.897 116.091 125.897 116.301C125.897 116.44 125.862 116.568 125.79 116.685C125.722 116.801 125.63 116.895 125.513 116.966C125.4 117.034 125.272 117.068 125.13 117.068ZM126.871 110.949C126.871 110.409 126.989 109.929 127.224 109.509C127.463 109.088 127.788 108.757 128.2 108.516C128.615 108.274 129.087 108.153 129.615 108.153C130.149 108.153 130.624 108.278 131.038 108.528C131.453 108.776 131.778 109.116 132.014 109.551C132.25 109.983 132.365 110.477 132.359 111.034C132.354 111.307 132.313 111.589 132.236 111.882C132.159 112.175 132.03 112.5 131.848 112.858C131.666 113.216 131.416 113.631 131.098 114.102L129.138 117H127.979L130.28 113.642C130.178 113.676 130.071 113.705 129.96 113.727C129.852 113.75 129.743 113.761 129.632 113.761C129.104 113.761 128.631 113.639 128.213 113.395C127.798 113.151 127.47 112.817 127.229 112.393C126.99 111.97 126.871 111.489 126.871 110.949ZM127.876 110.949C127.876 111.318 127.95 111.643 128.098 111.925C128.246 112.206 128.45 112.426 128.712 112.585C128.973 112.744 129.274 112.824 129.615 112.824C129.956 112.824 130.257 112.746 130.518 112.589C130.78 112.43 130.984 112.212 131.132 111.933C131.28 111.652 131.354 111.33 131.354 110.966C131.354 110.597 131.28 110.27 131.132 109.986C130.984 109.702 130.78 109.479 130.518 109.317C130.257 109.155 129.956 109.074 129.615 109.074C129.274 109.074 128.973 109.155 128.712 109.317C128.45 109.476 128.246 109.697 128.098 109.982C127.95 110.263 127.876 110.585 127.876 110.949ZM133.761 114.239C133.767 113.966 133.808 113.683 133.885 113.391C133.962 113.098 134.091 112.773 134.273 112.415C134.455 112.057 134.705 111.642 135.023 111.17L136.983 108.273H138.142L135.841 111.631C135.943 111.597 136.048 111.568 136.156 111.545C136.267 111.523 136.378 111.511 136.489 111.511C137.017 111.511 137.489 111.634 137.903 111.878C138.321 112.122 138.649 112.456 138.888 112.879C139.129 113.303 139.25 113.784 139.25 114.324C139.25 114.864 139.131 115.344 138.892 115.764C138.656 116.185 138.331 116.516 137.916 116.757C137.504 116.999 137.034 117.119 136.506 117.119C135.972 117.119 135.497 116.996 135.082 116.749C134.668 116.499 134.342 116.158 134.107 115.726C133.871 115.291 133.756 114.795 133.761 114.239ZM134.767 114.307C134.767 114.676 134.841 115.003 134.989 115.287C135.136 115.571 135.341 115.794 135.602 115.956C135.864 116.118 136.165 116.199 136.506 116.199C136.847 116.199 137.148 116.119 137.409 115.96C137.67 115.798 137.875 115.577 138.023 115.295C138.17 115.011 138.244 114.687 138.244 114.324C138.244 113.955 138.17 113.629 138.023 113.348C137.875 113.067 137.67 112.847 137.409 112.688C137.148 112.528 136.847 112.449 136.506 112.449C136.165 112.449 135.864 112.528 135.602 112.688C135.341 112.844 135.136 113.062 134.989 113.344C134.841 113.622 134.767 113.943 134.767 114.307Z" fill="#1C1C1C"/>
</svg>
