<svg width="384" height="168" viewBox="0 0 384 168" fill="none" xmlns="http://www.w3.org/2000/svg">
<path d="M1.05611 10.8182H2.12997C2.16122 11.1136 2.26207 11.3636 2.43253 11.5682C2.60582 11.7699 2.83026 11.9233 3.10582 12.0284C3.38139 12.1307 3.68679 12.1818 4.02202 12.1818C4.38565 12.1818 4.71236 12.1207 5.00213 11.9986C5.2919 11.8764 5.52202 11.6946 5.69247 11.4531C5.86293 11.2088 5.94815 10.9062 5.94815 10.5455C5.94815 10.2301 5.87429 9.9375 5.72656 9.66761C5.57884 9.39489 5.34162 9.17472 5.01491 9.0071C4.68821 8.83949 4.25497 8.75568 3.7152 8.75568H3.01634V7.90341L5.19815 5.27841V5.21023H1.48224V4.27273H6.64702V5.03977L4.31179 7.86932V7.9375C4.68679 7.95455 5.03622 8.03125 5.36009 8.16761C5.68679 8.30398 5.97088 8.48864 6.21236 8.72159C6.45668 8.95455 6.64702 9.22585 6.78338 9.53551C6.91974 9.84517 6.98793 10.1818 6.98793 10.5455C6.98793 11.0426 6.86009 11.4858 6.6044 11.875C6.35156 12.2614 6.00071 12.5653 5.55185 12.7869C5.10582 13.0085 4.5902 13.1193 4.00497 13.1193C3.48793 13.1193 3.01207 13.0284 2.57741 12.8466C2.14276 12.6648 1.78906 12.402 1.51634 12.0582C1.24361 11.7145 1.0902 11.3011 1.05611 10.8182ZM11.5742 13.1193C10.9322 13.1193 10.3853 12.9446 9.93359 12.5952C9.48189 12.2429 9.13672 11.733 8.89808 11.0653C8.65945 10.3949 8.54013 9.58523 8.54013 8.63636C8.54013 7.69318 8.65945 6.88778 8.89808 6.22017C9.13956 5.54972 9.48615 5.03835 9.93786 4.68608C10.3924 4.33097 10.9379 4.15341 11.5742 4.15341C12.2106 4.15341 12.7546 4.33097 13.2063 4.68608C13.6609 5.03835 14.0075 5.54972 14.2461 6.22017C14.4876 6.88778 14.6083 7.69318 14.6083 8.63636C14.6083 9.58523 14.489 10.3949 14.2504 11.0653C14.0117 11.733 13.6665 12.2429 13.2148 12.5952C12.7631 12.9446 12.2163 13.1193 11.5742 13.1193ZM11.5742 12.1818C12.2106 12.1818 12.7049 11.875 13.0572 11.2614C13.4094 10.6477 13.5856 9.77273 13.5856 8.63636C13.5856 7.88068 13.5046 7.23722 13.3427 6.70597C13.1836 6.17472 12.9535 5.76989 12.6523 5.49148C12.354 5.21307 11.9947 5.07386 11.5742 5.07386C10.9435 5.07386 10.4506 5.38494 10.0955 6.0071C9.74041 6.62642 9.56286 7.50284 9.56286 8.63636C9.56286 9.39205 9.6424 10.0341 9.80149 10.5625C9.96058 11.0909 10.1893 11.4929 10.4876 11.7685C10.7887 12.044 11.1509 12.1818 11.5742 12.1818ZM16.381 4.27273H17.6424L20.6083 11.517H20.7106L23.6765 4.27273H24.9379V13H23.9492V6.36932H23.864L21.1367 13H20.1822L17.4549 6.36932H17.3697V13H16.381V4.27273Z" fill="#1C1C1C" fill-opacity="0.4"/>
<path d="M1.462 55V54.233L4.34268 51.0795C4.68075 50.7102 4.95916 50.3892 5.17791 50.1165C5.39666 49.8409 5.55859 49.5824 5.66371 49.3409C5.77166 49.0966 5.82564 48.8409 5.82564 48.5739C5.82564 48.267 5.75178 48.0014 5.60405 47.777C5.45916 47.5526 5.2603 47.3793 5.00746 47.2571C4.75462 47.1349 4.47053 47.0739 4.15518 47.0739C3.81996 47.0739 3.52734 47.1435 3.27734 47.2827C3.03018 47.419 2.83842 47.6108 2.70206 47.858C2.56854 48.1051 2.50178 48.3949 2.50178 48.7273H1.49609C1.49609 48.2159 1.61399 47.767 1.84979 47.3807C2.08558 46.9943 2.40661 46.6932 2.81286 46.4773C3.22195 46.2614 3.68075 46.1534 4.18928 46.1534C4.70064 46.1534 5.15376 46.2614 5.54865 46.4773C5.94354 46.6932 6.2532 46.9844 6.47763 47.3509C6.70206 47.7173 6.81428 48.125 6.81428 48.5739C6.81428 48.8949 6.75604 49.2088 6.63956 49.5156C6.52592 49.8196 6.32706 50.1591 6.04297 50.5341C5.76172 50.9062 5.37109 51.3608 4.87109 51.8977L2.91087 53.9943V54.0625H6.96768V55H1.462ZM11.5742 55.1193C10.9322 55.1193 10.3853 54.9446 9.93359 54.5952C9.48189 54.2429 9.13672 53.733 8.89808 53.0653C8.65945 52.3949 8.54013 51.5852 8.54013 50.6364C8.54013 49.6932 8.65945 48.8878 8.89808 48.2202C9.13956 47.5497 9.48615 47.0384 9.93786 46.6861C10.3924 46.331 10.9379 46.1534 11.5742 46.1534C12.2106 46.1534 12.7546 46.331 13.2063 46.6861C13.6609 47.0384 14.0075 47.5497 14.2461 48.2202C14.4876 48.8878 14.6083 49.6932 14.6083 50.6364C14.6083 51.5852 14.489 52.3949 14.2504 53.0653C14.0117 53.733 13.6665 54.2429 13.2148 54.5952C12.7631 54.9446 12.2163 55.1193 11.5742 55.1193ZM11.5742 54.1818C12.2106 54.1818 12.7049 53.875 13.0572 53.2614C13.4094 52.6477 13.5856 51.7727 13.5856 50.6364C13.5856 49.8807 13.5046 49.2372 13.3427 48.706C13.1836 48.1747 12.9535 47.7699 12.6523 47.4915C12.354 47.2131 11.9947 47.0739 11.5742 47.0739C10.9435 47.0739 10.4506 47.3849 10.0955 48.0071C9.74041 48.6264 9.56286 49.5028 9.56286 50.6364C9.56286 51.392 9.6424 52.0341 9.80149 52.5625C9.96058 53.0909 10.1893 53.4929 10.4876 53.7685C10.7887 54.044 11.1509 54.1818 11.5742 54.1818ZM16.381 46.2727H17.6424L20.6083 53.517H20.7106L23.6765 46.2727H24.9379V55H23.9492V48.3693H23.864L21.1367 55H20.1822L17.4549 48.3693H17.3697V55H16.381V46.2727Z" fill="#1C1C1C" fill-opacity="0.4"/>
<path d="M6.22621 88.2727V97H5.16939V89.8068H5.10121C5.06143 89.8864 4.95916 89.9773 4.79439 90.0795C4.62962 90.179 4.41655 90.267 4.15518 90.3438C3.89382 90.4176 3.59553 90.4545 3.2603 90.4545V89.5682C3.59837 89.5682 3.89098 89.5071 4.13814 89.3849C4.3853 89.2628 4.59126 89.1193 4.75604 88.9545C4.92365 88.7898 5.05007 88.6406 5.1353 88.5071C5.22337 88.3736 5.2745 88.2955 5.28871 88.2727H6.22621ZM11.5742 97.1193C10.9322 97.1193 10.3853 96.9446 9.93359 96.5952C9.48189 96.2429 9.13672 95.733 8.89808 95.0653C8.65945 94.3949 8.54013 93.5852 8.54013 92.6364C8.54013 91.6932 8.65945 90.8878 8.89808 90.2202C9.13956 89.5497 9.48615 89.0384 9.93786 88.6861C10.3924 88.331 10.9379 88.1534 11.5742 88.1534C12.2106 88.1534 12.7546 88.331 13.2063 88.6861C13.6609 89.0384 14.0075 89.5497 14.2461 90.2202C14.4876 90.8878 14.6083 91.6932 14.6083 92.6364C14.6083 93.5852 14.489 94.3949 14.2504 95.0653C14.0117 95.733 13.6665 96.2429 13.2148 96.5952C12.7631 96.9446 12.2163 97.1193 11.5742 97.1193ZM11.5742 96.1818C12.2106 96.1818 12.7049 95.875 13.0572 95.2614C13.4094 94.6477 13.5856 93.7727 13.5856 92.6364C13.5856 91.8807 13.5046 91.2372 13.3427 90.706C13.1836 90.1747 12.9535 89.7699 12.6523 89.4915C12.354 89.2131 11.9947 89.0739 11.5742 89.0739C10.9435 89.0739 10.4506 89.3849 10.0955 90.0071C9.74041 90.6264 9.56286 91.5028 9.56286 92.6364C9.56286 93.392 9.6424 94.0341 9.80149 94.5625C9.96058 95.0909 10.1893 95.4929 10.4876 95.7685C10.7887 96.044 11.1509 96.1818 11.5742 96.1818ZM16.381 88.2727H17.6424L20.6083 95.517H20.7106L23.6765 88.2727H24.9379V97H23.9492V90.3693H23.864L21.1367 97H20.1822L17.4549 90.3693H17.3697V97H16.381V88.2727Z" fill="#1C1C1C" fill-opacity="0.4"/>
<path d="M22.25 139.119C21.608 139.119 21.0611 138.945 20.6094 138.595C20.1577 138.243 19.8125 137.733 19.5739 137.065C19.3352 136.395 19.2159 135.585 19.2159 134.636C19.2159 133.693 19.3352 132.888 19.5739 132.22C19.8153 131.55 20.1619 131.038 20.6136 130.686C21.0682 130.331 21.6136 130.153 22.25 130.153C22.8864 130.153 23.4304 130.331 23.8821 130.686C24.3366 131.038 24.6832 131.55 24.9219 132.22C25.1634 132.888 25.2841 133.693 25.2841 134.636C25.2841 135.585 25.1648 136.395 24.9261 137.065C24.6875 137.733 24.3423 138.243 23.8906 138.595C23.4389 138.945 22.892 139.119 22.25 139.119ZM22.25 138.182C22.8864 138.182 23.3807 137.875 23.733 137.261C24.0852 136.648 24.2614 135.773 24.2614 134.636C24.2614 133.881 24.1804 133.237 24.0185 132.706C23.8594 132.175 23.6293 131.77 23.3281 131.491C23.0298 131.213 22.6705 131.074 22.25 131.074C21.6193 131.074 21.1264 131.385 20.7713 132.007C20.4162 132.626 20.2386 133.503 20.2386 134.636C20.2386 135.392 20.3182 136.034 20.4773 136.562C20.6364 137.091 20.8651 137.493 21.1634 137.768C21.4645 138.044 21.8267 138.182 22.25 138.182Z" fill="#1C1C1C" fill-opacity="0.4"/>
<line x1="42.5" y1="15.5" x2="383.5" y2="15.5" stroke="#1C1C1C" stroke-opacity="0.05" stroke-linecap="round"/>
<line x1="42.5" y1="56.8334" x2="383.5" y2="56.8334" stroke="#1C1C1C" stroke-opacity="0.05" stroke-linecap="round"/>
<line x1="42.5" y1="98.1666" x2="383.5" y2="98.1666" stroke="#1C1C1C" stroke-opacity="0.05" stroke-linecap="round"/>
<line x1="42.5" y1="139.5" x2="383.5" y2="139.5" stroke="#1C1C1C" stroke-opacity="0.2" stroke-linecap="round"/>
<path d="M64.4036 154.273H65.4604V160.511C65.4604 161.068 65.3581 161.541 65.1536 161.93C64.949 162.32 64.6607 162.615 64.2885 162.817C63.9164 163.018 63.4775 163.119 62.9718 163.119C62.4945 163.119 62.0698 163.033 61.6976 162.859C61.3255 162.683 61.0328 162.433 60.8198 162.109C60.6067 161.786 60.5002 161.401 60.5002 160.955H61.54C61.54 161.202 61.601 161.418 61.7232 161.602C61.8482 161.784 62.0186 161.926 62.2346 162.028C62.4505 162.131 62.6962 162.182 62.9718 162.182C63.2757 162.182 63.5343 162.118 63.7473 161.99C63.9604 161.862 64.1223 161.675 64.2331 161.428C64.3468 161.178 64.4036 160.872 64.4036 160.511V154.273ZM69.9135 163.136C69.3681 163.136 68.8865 162.999 68.4689 162.723C68.0513 162.445 67.7246 162.053 67.4888 161.547C67.253 161.038 67.1351 160.438 67.1351 159.744C67.1351 159.057 67.253 158.46 67.4888 157.955C67.7246 157.449 68.0527 157.058 68.4732 156.783C68.8936 156.507 69.3794 156.369 69.9306 156.369C70.3567 156.369 70.6934 156.44 70.9405 156.582C71.1905 156.722 71.3809 156.881 71.5115 157.06C71.6451 157.236 71.7488 157.381 71.8226 157.494H71.9078V156.455H72.9135V163H71.9419V161.994H71.8226C71.7488 162.114 71.6436 162.264 71.5073 162.446C71.3709 162.625 71.1763 162.786 70.9235 162.928C70.6706 163.067 70.334 163.136 69.9135 163.136ZM70.0499 162.233C70.4533 162.233 70.7942 162.128 71.0726 161.918C71.351 161.705 71.5627 161.411 71.7076 161.036C71.8525 160.658 71.9249 160.222 71.9249 159.727C71.9249 159.239 71.8539 158.811 71.7118 158.445C71.5698 158.075 71.3596 157.788 71.0811 157.584C70.8027 157.376 70.459 157.273 70.0499 157.273C69.6238 157.273 69.2686 157.382 68.9846 157.601C68.7033 157.817 68.4917 158.111 68.3496 158.483C68.2104 158.852 68.1408 159.267 68.1408 159.727C68.1408 160.193 68.2118 160.616 68.3539 160.997C68.4988 161.375 68.7118 161.676 68.9931 161.901C69.2772 162.122 69.6294 162.233 70.0499 162.233ZM75.9007 159.062V163H74.8951V156.455H75.8667V157.477H75.9519C76.1053 157.145 76.3382 156.878 76.6507 156.676C76.9632 156.472 77.3667 156.369 77.861 156.369C78.3042 156.369 78.6919 156.46 79.0243 156.642C79.3567 156.821 79.6152 157.094 79.7999 157.46C79.9846 157.824 80.0769 158.284 80.0769 158.841V163H79.0712V158.909C79.0712 158.395 78.9377 157.994 78.6706 157.707C78.4036 157.418 78.0371 157.273 77.5712 157.273C77.2502 157.273 76.9632 157.342 76.7104 157.482C76.4604 157.621 76.263 157.824 76.1181 158.091C75.9732 158.358 75.9007 158.682 75.9007 159.062Z" fill="#1C1C1C" fill-opacity="0.4"/>
<path d="M118.057 163V154.273H123.29V155.21H119.114V158.159H122.898V159.097H119.114V163H118.057ZM127.227 163.136C126.597 163.136 126.053 162.997 125.595 162.719C125.141 162.438 124.79 162.045 124.543 161.543C124.298 161.037 124.176 160.449 124.176 159.778C124.176 159.108 124.298 158.517 124.543 158.006C124.79 157.491 125.134 157.091 125.574 156.804C126.017 156.514 126.534 156.369 127.125 156.369C127.466 156.369 127.803 156.426 128.135 156.54C128.467 156.653 128.77 156.838 129.043 157.094C129.315 157.347 129.533 157.682 129.695 158.099C129.857 158.517 129.938 159.031 129.938 159.642V160.068H124.892V159.199H128.915C128.915 158.83 128.841 158.5 128.693 158.21C128.548 157.92 128.341 157.692 128.071 157.524C127.804 157.357 127.489 157.273 127.125 157.273C126.724 157.273 126.378 157.372 126.085 157.571C125.795 157.767 125.572 158.023 125.416 158.338C125.26 158.653 125.182 158.991 125.182 159.352V159.932C125.182 160.426 125.267 160.845 125.438 161.189C125.611 161.53 125.851 161.79 126.158 161.969C126.464 162.145 126.821 162.233 127.227 162.233C127.491 162.233 127.73 162.196 127.943 162.122C128.159 162.045 128.345 161.932 128.501 161.781C128.658 161.628 128.778 161.437 128.864 161.21L129.835 161.483C129.733 161.812 129.561 162.102 129.32 162.352C129.078 162.599 128.78 162.793 128.425 162.932C128.07 163.068 127.67 163.136 127.227 163.136ZM131.604 163V154.273H132.609V157.494H132.695C132.768 157.381 132.871 157.236 133.001 157.06C133.135 156.881 133.325 156.722 133.572 156.582C133.822 156.44 134.161 156.369 134.587 156.369C135.138 156.369 135.624 156.507 136.044 156.783C136.464 157.058 136.793 157.449 137.028 157.955C137.264 158.46 137.382 159.057 137.382 159.744C137.382 160.438 137.264 161.038 137.028 161.547C136.793 162.053 136.466 162.445 136.048 162.723C135.631 162.999 135.149 163.136 134.604 163.136C134.183 163.136 133.847 163.067 133.594 162.928C133.341 162.786 133.146 162.625 133.01 162.446C132.874 162.264 132.768 162.114 132.695 161.994H132.575V163H131.604ZM132.592 159.727C132.592 160.222 132.665 160.658 132.81 161.036C132.955 161.411 133.166 161.705 133.445 161.918C133.723 162.128 134.064 162.233 134.467 162.233C134.888 162.233 135.239 162.122 135.52 161.901C135.804 161.676 136.017 161.375 136.159 160.997C136.304 160.616 136.376 160.193 136.376 159.727C136.376 159.267 136.305 158.852 136.163 158.483C136.024 158.111 135.813 157.817 135.528 157.601C135.247 157.382 134.893 157.273 134.467 157.273C134.058 157.273 133.714 157.376 133.436 157.584C133.158 157.788 132.947 158.075 132.805 158.445C132.663 158.811 132.592 159.239 132.592 159.727Z" fill="#1C1C1C" fill-opacity="0.4"/>
<path d="M174.26 154.273H175.521L178.487 161.517H178.589L181.555 154.273H182.817V163H181.828V156.369H181.743L179.016 163H178.061L175.334 156.369H175.249V163H174.26V154.273ZM187.271 163.136C186.725 163.136 186.244 162.999 185.826 162.723C185.409 162.445 185.082 162.053 184.846 161.547C184.61 161.038 184.493 160.438 184.493 159.744C184.493 159.057 184.61 158.46 184.846 157.955C185.082 157.449 185.41 157.058 185.831 156.783C186.251 156.507 186.737 156.369 187.288 156.369C187.714 156.369 188.051 156.44 188.298 156.582C188.548 156.722 188.738 156.881 188.869 157.06C189.002 157.236 189.106 157.381 189.18 157.494H189.265V156.455H190.271V163H189.299V161.994H189.18C189.106 162.114 189.001 162.264 188.865 162.446C188.728 162.625 188.534 162.786 188.281 162.928C188.028 163.067 187.691 163.136 187.271 163.136ZM187.407 162.233C187.811 162.233 188.152 162.128 188.43 161.918C188.708 161.705 188.92 161.411 189.065 161.036C189.21 160.658 189.282 160.222 189.282 159.727C189.282 159.239 189.211 158.811 189.069 158.445C188.927 158.075 188.717 157.788 188.439 157.584C188.16 157.376 187.816 157.273 187.407 157.273C186.981 157.273 186.626 157.382 186.342 157.601C186.061 157.817 185.849 158.111 185.707 158.483C185.568 158.852 185.498 159.267 185.498 159.727C185.498 160.193 185.569 160.616 185.711 160.997C185.856 161.375 186.069 161.676 186.35 161.901C186.635 162.122 186.987 162.233 187.407 162.233ZM192.252 163V156.455H193.224V157.443H193.292C193.412 157.119 193.627 156.857 193.94 156.655C194.252 156.453 194.605 156.352 194.997 156.352C195.071 156.352 195.163 156.354 195.274 156.357C195.385 156.359 195.468 156.364 195.525 156.369V157.392C195.491 157.384 195.413 157.371 195.291 157.354C195.172 157.334 195.045 157.324 194.912 157.324C194.593 157.324 194.309 157.391 194.059 157.524C193.812 157.655 193.616 157.837 193.471 158.07C193.329 158.3 193.258 158.562 193.258 158.858V163H192.252Z" fill="#1C1C1C" fill-opacity="0.4"/>
<path d="M232.971 163H231.863L235.068 154.273H236.159L239.363 163H238.256L235.648 155.653H235.579L232.971 163ZM233.381 159.591H237.846V160.528H233.381V159.591ZM240.586 165.455V156.455H241.558V157.494H241.677C241.751 157.381 241.854 157.236 241.984 157.06C242.118 156.881 242.308 156.722 242.555 156.582C242.805 156.44 243.143 156.369 243.569 156.369C244.121 156.369 244.606 156.507 245.027 156.783C245.447 157.058 245.775 157.449 246.011 157.955C246.247 158.46 246.365 159.057 246.365 159.744C246.365 160.438 246.247 161.038 246.011 161.547C245.775 162.053 245.449 162.445 245.031 162.723C244.613 162.999 244.132 163.136 243.586 163.136C243.166 163.136 242.829 163.067 242.577 162.928C242.324 162.786 242.129 162.625 241.993 162.446C241.856 162.264 241.751 162.114 241.677 161.994H241.592V165.455H240.586ZM241.575 159.727C241.575 160.222 241.648 160.658 241.792 161.036C241.937 161.411 242.149 161.705 242.427 161.918C242.706 162.128 243.047 162.233 243.45 162.233C243.871 162.233 244.221 162.122 244.503 161.901C244.787 161.676 245 161.375 245.142 160.997C245.287 160.616 245.359 160.193 245.359 159.727C245.359 159.267 245.288 158.852 245.146 158.483C245.007 158.111 244.795 157.817 244.511 157.601C244.23 157.382 243.876 157.273 243.45 157.273C243.041 157.273 242.697 157.376 242.419 157.584C242.14 157.788 241.93 158.075 241.788 158.445C241.646 158.811 241.575 159.239 241.575 159.727ZM247.899 163V156.455H248.871V157.443H248.939C249.058 157.119 249.274 156.857 249.586 156.655C249.899 156.453 250.251 156.352 250.643 156.352C250.717 156.352 250.809 156.354 250.92 156.357C251.031 156.359 251.115 156.364 251.172 156.369V157.392C251.138 157.384 251.059 157.371 250.937 157.354C250.818 157.334 250.692 157.324 250.558 157.324C250.24 157.324 249.956 157.391 249.706 157.524C249.459 157.655 249.263 157.837 249.118 158.07C248.976 158.3 248.905 158.562 248.905 158.858V163H247.899Z" fill="#1C1C1C" fill-opacity="0.4"/>
<path d="M287.153 154.273H288.414L291.38 161.517H291.482L294.448 154.273H295.709V163H294.721V156.369H294.635L291.908 163H290.954L288.226 156.369H288.141V163H287.153V154.273ZM300.164 163.136C299.618 163.136 299.137 162.999 298.719 162.723C298.301 162.445 297.975 162.053 297.739 161.547C297.503 161.038 297.385 160.438 297.385 159.744C297.385 159.057 297.503 158.46 297.739 157.955C297.975 157.449 298.303 157.058 298.723 156.783C299.144 156.507 299.629 156.369 300.181 156.369C300.607 156.369 300.943 156.44 301.191 156.582C301.441 156.722 301.631 156.881 301.762 157.06C301.895 157.236 301.999 157.381 302.073 157.494H302.158V156.455H303.164V163H302.192V161.994H302.073C301.999 162.114 301.894 162.264 301.757 162.446C301.621 162.625 301.426 162.786 301.173 162.928C300.921 163.067 300.584 163.136 300.164 163.136ZM300.3 162.233C300.703 162.233 301.044 162.128 301.323 161.918C301.601 161.705 301.813 161.411 301.958 161.036C302.102 160.658 302.175 160.222 302.175 159.727C302.175 159.239 302.104 158.811 301.962 158.445C301.82 158.075 301.61 157.788 301.331 157.584C301.053 157.376 300.709 157.273 300.3 157.273C299.874 157.273 299.519 157.382 299.235 157.601C298.953 157.817 298.742 158.111 298.6 158.483C298.46 158.852 298.391 159.267 298.391 159.727C298.391 160.193 298.462 160.616 298.604 160.997C298.749 161.375 298.962 161.676 299.243 161.901C299.527 162.122 299.879 162.233 300.3 162.233ZM305.793 165.455C305.622 165.455 305.47 165.44 305.337 165.412C305.203 165.386 305.111 165.361 305.06 165.335L305.316 164.449C305.56 164.511 305.776 164.534 305.963 164.517C306.151 164.5 306.317 164.416 306.462 164.266C306.61 164.118 306.744 163.878 306.867 163.545L307.054 163.034L304.634 156.455H305.725L307.531 161.67H307.6L309.406 156.455H310.497L307.719 163.955C307.594 164.293 307.439 164.572 307.254 164.794C307.07 165.018 306.855 165.185 306.611 165.293C306.369 165.401 306.097 165.455 305.793 165.455Z" fill="#1C1C1C" fill-opacity="0.4"/>
<path d="M349.644 154.273H350.701V160.511C350.701 161.068 350.598 161.541 350.394 161.93C350.189 162.32 349.901 162.615 349.529 162.817C349.157 163.018 348.718 163.119 348.212 163.119C347.735 163.119 347.31 163.033 346.938 162.859C346.566 162.683 346.273 162.433 346.06 162.109C345.847 161.786 345.74 161.401 345.74 160.955H346.78C346.78 161.202 346.841 161.418 346.963 161.602C347.088 161.784 347.259 161.926 347.475 162.028C347.691 162.131 347.936 162.182 348.212 162.182C348.516 162.182 348.775 162.118 348.988 161.99C349.201 161.862 349.363 161.675 349.473 161.428C349.587 161.178 349.644 160.872 349.644 160.511V154.273ZM356.807 160.324V156.455H357.813V163H356.807V161.892H356.739C356.586 162.224 356.347 162.507 356.023 162.74C355.699 162.97 355.29 163.085 354.796 163.085C354.387 163.085 354.023 162.996 353.705 162.817C353.387 162.635 353.137 162.362 352.955 161.999C352.773 161.632 352.682 161.17 352.682 160.614V156.455H353.688V160.545C353.688 161.023 353.821 161.403 354.088 161.688C354.358 161.972 354.702 162.114 355.12 162.114C355.37 162.114 355.624 162.05 355.882 161.922C356.144 161.794 356.363 161.598 356.539 161.334C356.718 161.07 356.807 160.733 356.807 160.324ZM360.661 159.062V163H359.655V156.455H360.626V157.477H360.712C360.865 157.145 361.098 156.878 361.411 156.676C361.723 156.472 362.126 156.369 362.621 156.369C363.064 156.369 363.452 156.46 363.784 156.642C364.116 156.821 364.375 157.094 364.56 157.46C364.744 157.824 364.837 158.284 364.837 158.841V163H363.831V158.909C363.831 158.395 363.697 157.994 363.43 157.707C363.163 157.418 362.797 157.273 362.331 157.273C362.01 157.273 361.723 157.342 361.47 157.482C361.22 157.621 361.023 157.824 360.878 158.091C360.733 158.358 360.661 158.682 360.661 159.062Z" fill="#1C1C1C" fill-opacity="0.4"/>
<path opacity="0.5" d="M61 56.4C61 54.1598 61 53.0397 61.436 52.184C61.8195 51.4314 62.4314 50.8195 63.184 50.436C64.0397 50 65.1598 50 67.4 50H74.6C76.8402 50 77.9603 50 78.816 50.436C79.5686 50.8195 80.1805 51.4314 80.564 52.184C81 53.0397 81 54.1598 81 56.4V140H61V56.4Z" fill="#A8C5DA"/>
<rect x="61" y="68" width="20" height="72" fill="#A8C5DA"/>
<path opacity="0.5" d="M118 36.4C118 34.1598 118 33.0397 118.436 32.184C118.819 31.4314 119.431 30.8195 120.184 30.436C121.04 30 122.16 30 124.4 30H131.6C133.84 30 134.96 30 135.816 30.436C136.569 30.8195 137.181 31.4314 137.564 32.184C138 33.0397 138 34.1598 138 36.4V140H118V36.4Z" fill="#A8C5DA"/>
<rect x="118" y="52" width="20" height="88" fill="#A8C5DA"/>
<path opacity="0.5" d="M175 51.4C175 49.1598 175 48.0397 175.436 47.184C175.819 46.4314 176.431 45.8195 177.184 45.436C178.04 45 179.16 45 181.4 45H188.6C190.84 45 191.96 45 192.816 45.436C193.569 45.8195 194.181 46.4314 194.564 47.184C195 48.0397 195 49.1598 195 51.4V140H175V51.4Z" fill="#A8C5DA"/>
<rect x="175" y="64" width="20" height="76" fill="#A8C5DA"/>
<path opacity="0.5" d="M232 26.4C232 24.1598 232 23.0397 232.436 22.184C232.819 21.4314 233.431 20.8195 234.184 20.436C235.04 20 236.16 20 238.4 20H245.6C247.84 20 248.96 20 249.816 20.436C250.569 20.8195 251.181 21.4314 251.564 22.184C252 23.0397 252 24.1598 252 26.4V140H232V26.4Z" fill="#A8C5DA"/>
<rect x="232" y="44" width="20" height="96" fill="#A8C5DA"/>
<path opacity="0.5" d="M289 66.4C289 64.1598 289 63.0397 289.436 62.184C289.819 61.4314 290.431 60.8195 291.184 60.436C292.04 60 293.16 60 295.4 60H302.6C304.84 60 305.96 60 306.816 60.436C307.569 60.8195 308.181 61.4314 308.564 62.184C309 63.0397 309 64.1598 309 66.4V140H289V66.4Z" fill="#A8C5DA"/>
<rect x="289" y="76" width="20" height="64" fill="#A8C5DA"/>
<path opacity="0.5" d="M346 36.4C346 34.1598 346 33.0397 346.436 32.184C346.819 31.4314 347.431 30.8195 348.184 30.436C349.04 30 350.16 30 352.4 30H359.6C361.84 30 362.96 30 363.816 30.436C364.569 30.8195 365.181 31.4314 365.564 32.184C366 33.0397 366 34.1598 366 36.4V140H346V36.4Z" fill="#A8C5DA"/>
<rect x="346" y="52" width="20" height="88" fill="#A8C5DA"/>
</svg>
