<svg width="20" height="20" viewBox="0 0 20 20" fill="none" xmlns="http://www.w3.org/2000/svg">
<path d="M6.25 3.125V16.875H3.75C3.58424 16.875 3.42527 16.8092 3.30806 16.6919C3.19085 16.5747 3.125 16.4158 3.125 16.25V3.75C3.125 3.58424 3.19085 3.42527 3.30806 3.30806C3.42527 3.19085 3.58424 3.125 3.75 3.125H6.25Z" fill="currentcolor" fill-opacity="0.1"/>
<path d="M14.375 8.75C14.375 8.91576 14.3092 9.07473 14.1919 9.19194C14.0747 9.30915 13.9158 9.375 13.75 9.375H8.75C8.58424 9.375 8.42527 9.30915 8.30806 9.19194C8.19085 9.07473 8.125 8.91576 8.125 8.75C8.125 8.58424 8.19085 8.42527 8.30806 8.30806C8.42527 8.19085 8.58424 8.125 8.75 8.125H13.75C13.9158 8.125 14.0747 8.19085 14.1919 8.30806C14.3092 8.42527 14.375 8.58424 14.375 8.75ZM13.75 10.625H8.75C8.58424 10.625 8.42527 10.6908 8.30806 10.8081C8.19085 10.9253 8.125 11.0842 8.125 11.25C8.125 11.4158 8.19085 11.5747 8.30806 11.6919C8.42527 11.8092 8.58424 11.875 8.75 11.875H13.75C13.9158 11.875 14.0747 11.8092 14.1919 11.6919C14.3092 11.5747 14.375 11.4158 14.375 11.25C14.375 11.0842 14.3092 10.9253 14.1919 10.8081C14.0747 10.6908 13.9158 10.625 13.75 10.625ZM17.5 3.75V16.25C17.5 16.5815 17.3683 16.8995 17.1339 17.1339C16.8995 17.3683 16.5815 17.5 16.25 17.5H3.75C3.41848 17.5 3.10054 17.3683 2.86612 17.1339C2.6317 16.8995 2.5 16.5815 2.5 16.25V3.75C2.5 3.41848 2.6317 3.10054 2.86612 2.86612C3.10054 2.6317 3.41848 2.5 3.75 2.5H16.25C16.5815 2.5 16.8995 2.6317 17.1339 2.86612C17.3683 3.10054 17.5 3.41848 17.5 3.75ZM3.75 16.25H5.625V3.75H3.75V16.25ZM16.25 16.25V3.75H6.875V16.25H16.25Z" fill="currentcolor"/>
</svg>
