<svg width="20" height="20" viewBox="0 0 20 20" fill="none" xmlns="http://www.w3.org/2000/svg">
<path d="M13.125 11.25C13.125 11.8681 12.9417 12.4723 12.5983 12.9862C12.255 13.5001 11.7669 13.9006 11.1959 14.1371C10.6249 14.3736 9.99653 14.4355 9.39034 14.315C8.78415 14.1944 8.22733 13.8967 7.79029 13.4597C7.35325 13.0227 7.05563 12.4658 6.93505 11.8597C6.81447 11.2535 6.87635 10.6251 7.11288 10.0541C7.3494 9.48309 7.74994 8.99504 8.26384 8.65166C8.77775 8.30828 9.38193 8.125 10 8.125C10.8288 8.125 11.6237 8.45424 12.2097 9.04029C12.7958 9.62634 13.125 10.4212 13.125 11.25ZM5 4.375C4.50555 4.375 4.0222 4.52162 3.61108 4.79633C3.19995 5.07103 2.87952 5.46148 2.6903 5.91829C2.50108 6.37511 2.45157 6.87777 2.54804 7.36273C2.6445 7.84768 2.8826 8.29314 3.23223 8.64277C3.58187 8.9924 4.02732 9.2305 4.51228 9.32696C4.99723 9.42343 5.49989 9.37392 5.95671 9.1847C6.41353 8.99548 6.80397 8.67505 7.07868 8.26393C7.35338 7.8528 7.5 7.36945 7.5 6.875C7.5 6.21196 7.23661 5.57607 6.76777 5.10723C6.29893 4.63839 5.66304 4.375 5 4.375ZM15 4.375C14.5055 4.375 14.0222 4.52162 13.6111 4.79633C13.2 5.07103 12.8795 5.46148 12.6903 5.91829C12.5011 6.37511 12.4516 6.87777 12.548 7.36273C12.6445 7.84768 12.8826 8.29314 13.2322 8.64277C13.5819 8.9924 14.0273 9.2305 14.5123 9.32696C14.9972 9.42343 15.4999 9.37392 15.9567 9.1847C16.4135 8.99548 16.804 8.67505 17.0787 8.26393C17.3534 7.8528 17.5 7.36945 17.5 6.875C17.5 6.21196 17.2366 5.57607 16.7678 5.10723C16.2989 4.63839 15.663 4.375 15 4.375Z" fill="currentcolor" fill-opacity="0.1"/>
<path d="M19.125 11.7501C19.0593 11.7993 18.9846 11.8351 18.9051 11.8555C18.8256 11.8759 18.7429 11.8804 18.6616 11.8688C18.5804 11.8572 18.5022 11.8297 18.4316 11.7879C18.3609 11.746 18.2992 11.6907 18.25 11.6251C17.8733 11.1187 17.3829 10.7079 16.8185 10.4256C16.254 10.1434 15.6311 9.99761 15 10.0001C14.8342 10.0001 14.6753 9.93421 14.558 9.817C14.4408 9.69979 14.375 9.54082 14.375 9.37506C14.375 9.2093 14.4408 9.05033 14.558 8.93312C14.6753 8.81591 14.8342 8.75006 15 8.75006C15.3507 8.75003 15.6943 8.65165 15.9919 8.46611C16.2895 8.28056 16.529 8.01528 16.6834 7.7004C16.8378 7.38552 16.9007 7.03367 16.8651 6.68479C16.8296 6.33592 16.6969 6.00402 16.4821 5.72679C16.2673 5.44957 15.9791 5.23812 15.6502 5.11648C15.3213 4.99483 14.9649 4.96787 14.6214 5.03864C14.278 5.10941 13.9612 5.27509 13.7072 5.51685C13.4532 5.75861 13.272 6.06676 13.1844 6.40631C13.1638 6.48582 13.1279 6.56051 13.0785 6.62612C13.0291 6.69172 12.9673 6.74696 12.8965 6.78867C12.8258 6.83039 12.7476 6.85776 12.6662 6.86923C12.5849 6.8807 12.5022 6.87605 12.4226 6.85553C12.3431 6.83501 12.2684 6.79903 12.2028 6.74964C12.1372 6.70026 12.082 6.63844 12.0403 6.5677C11.9986 6.49697 11.9712 6.41872 11.9597 6.3374C11.9483 6.25609 11.9529 6.17332 11.9734 6.09381C12.0951 5.62296 12.325 5.18701 12.6448 4.82065C12.9646 4.45428 13.3656 4.16761 13.8157 3.98346C14.2658 3.7993 14.7526 3.72273 15.2375 3.75985C15.7224 3.79696 16.192 3.94674 16.6088 4.19725C17.0256 4.44777 17.3782 4.79211 17.6386 5.20288C17.8989 5.61366 18.0598 6.07952 18.1084 6.5634C18.157 7.04728 18.092 7.53583 17.9186 7.99017C17.7451 8.44452 17.468 8.85211 17.1094 9.18053C17.9592 9.54849 18.698 10.1324 19.2523 10.8743C19.3016 10.9401 19.3374 11.015 19.3576 11.0947C19.3779 11.1743 19.3822 11.2572 19.3704 11.3386C19.3585 11.4199 19.3308 11.4982 19.2887 11.5688C19.2466 11.6394 19.1909 11.701 19.125 11.7501ZM14.9156 16.5626C14.9593 16.6337 14.9882 16.7129 15.0007 16.7954C15.0133 16.8779 15.0092 16.9621 14.9886 17.043C14.9681 17.1239 14.9316 17.1999 14.8812 17.2664C14.8309 17.333 14.7677 17.3888 14.6954 17.4305C14.6232 17.4723 14.5433 17.4991 14.4605 17.5095C14.3776 17.5198 14.2936 17.5135 14.2133 17.4909C14.1329 17.4682 14.0579 17.4297 13.9927 17.3776C13.9275 17.3255 13.8734 17.2609 13.8336 17.1876C13.4398 16.5211 12.8791 15.9687 12.2068 15.5851C11.5345 15.2014 10.7737 14.9996 9.9996 14.9996C9.22549 14.9996 8.46475 15.2014 7.79242 15.5851C7.12008 15.9687 6.55938 16.5211 6.16562 17.1876C6.12655 17.2622 6.07277 17.3283 6.00752 17.3816C5.94228 17.435 5.86691 17.4746 5.78595 17.4981C5.705 17.5216 5.62013 17.5285 5.53645 17.5183C5.45277 17.5081 5.37202 17.4811 5.29904 17.439C5.22606 17.3968 5.16237 17.3403 5.1118 17.2728C5.06122 17.2054 5.02481 17.1284 5.00476 17.0465C4.98471 16.9647 4.98142 16.8796 4.9951 16.7964C5.00878 16.7132 5.03915 16.6337 5.08437 16.5626C5.6903 15.5214 6.61421 14.7021 7.7203 14.2251C7.0979 13.7485 6.64048 13.0889 6.41234 12.339C6.18419 11.589 6.19679 10.7865 6.44836 10.044C6.69994 9.30163 7.17784 8.65672 7.81489 8.19996C8.45194 7.7432 9.21611 7.49755 9.99999 7.49755C10.7839 7.49755 11.548 7.7432 12.1851 8.19996C12.8221 8.65672 13.3 9.30163 13.5516 10.044C13.8032 10.7865 13.8158 11.589 13.5876 12.339C13.3595 13.0889 12.9021 13.7485 12.2797 14.2251C13.3858 14.7021 14.3097 15.5214 14.9156 16.5626ZM9.99999 13.7501C10.4944 13.7501 10.9778 13.6034 11.3889 13.3287C11.8 13.054 12.1205 12.6636 12.3097 12.2068C12.4989 11.75 12.5484 11.2473 12.452 10.7623C12.3555 10.2774 12.1174 9.83192 11.7678 9.48229C11.4181 9.13266 10.9727 8.89456 10.4877 8.79809C10.0028 8.70163 9.5001 8.75114 9.04328 8.94036C8.58647 9.12958 8.19602 9.45001 7.92132 9.86113C7.64662 10.2723 7.49999 10.7556 7.49999 11.2501C7.49999 11.9131 7.76338 12.549 8.23223 13.0178C8.70107 13.4867 9.33695 13.7501 9.99999 13.7501ZM5.62499 9.37506C5.62499 9.2093 5.55914 9.05033 5.44193 8.93312C5.32472 8.81591 5.16575 8.75006 4.99999 8.75006C4.64931 8.75003 4.30567 8.65165 4.00809 8.46611C3.71052 8.28056 3.47094 8.01528 3.31658 7.7004C3.16222 7.38552 3.09925 7.03367 3.13484 6.68479C3.17042 6.33592 3.30313 6.00402 3.51789 5.72679C3.73265 5.44957 4.02085 5.23812 4.34976 5.11648C4.67866 4.99483 5.03509 4.96787 5.37856 5.03864C5.72203 5.10941 6.03876 5.27509 6.29279 5.51685C6.54681 5.75861 6.72795 6.06676 6.81562 6.40631C6.85706 6.56689 6.96059 6.70443 7.10344 6.78867C7.24629 6.87292 7.41676 6.89697 7.57734 6.85553C7.73792 6.81409 7.87546 6.71055 7.9597 6.5677C8.04395 6.42485 8.06799 6.25439 8.02655 6.09381C7.90487 5.62296 7.67497 5.18701 7.35516 4.82065C7.03534 4.45428 6.63443 4.16761 6.18433 3.98346C5.73423 3.7993 5.24736 3.72273 4.76246 3.75985C4.27756 3.79696 3.80801 3.94674 3.39119 4.19725C2.97436 4.44777 2.62175 4.79211 2.36142 5.20288C2.10108 5.61366 1.94021 6.07952 1.89161 6.5634C1.843 7.04728 1.908 7.53583 2.08143 7.99017C2.25486 8.44452 2.53194 8.85211 2.89062 9.18053C2.04162 9.54884 1.30368 10.1327 0.749993 10.8743C0.650433 11.0069 0.607629 11.1736 0.630998 11.3378C0.654367 11.5019 0.741994 11.6501 0.874602 11.7497C1.00721 11.8492 1.17394 11.892 1.3381 11.8687C1.50227 11.8453 1.65043 11.7577 1.74999 11.6251C2.1267 11.1187 2.61703 10.7079 3.18152 10.4256C3.74601 10.1434 4.36888 9.99761 4.99999 10.0001C5.16575 10.0001 5.32472 9.93421 5.44193 9.817C5.55914 9.69979 5.62499 9.54082 5.62499 9.37506Z" fill="currentcolor"/>
</svg>
