<svg class="w-5 h-5" width="20" height="20" viewBox="0 0 32 32" fill="none" xmlns="http://www.w3.org/2000/svg">
                                    <path d="M4.20007 18.2C4.06372 17.4747 3.9967 16.738 4.00012 16C3.99854 13.5182 4.76721 11.0972 6.2002 9.07092C7.63318 7.04456 9.65967 5.51306 12.0001 4.6875V13.6875L4.20007 18.2Z" fill="black" fill-opacity="0.1"></path>
                                    <path d="M17 16V4C17 3.44772 16.5523 3 16 3C15.4477 3 15 3.44772 15 4V16C15 16.5523 15.4477 17 16 17C16.5523 17 17 16.5523 17 16Z" fill="currentcolor"></path>
                                    <path d="M5.11288 21.1336L5.11213 21.1341C4.88247 21.2667 4.71492 21.4852 4.64633 21.7414C4.62374 21.8257 4.6123 21.9127 4.6123 22C4.6123 22.0106 4.61247 22.0212 4.61281 22.0317C4.61804 22.1965 4.66392 22.3574 4.74638 22.5002C4.92504 22.8095 5.25511 23 5.6123 23C5.62784 23 5.64337 22.9996 5.65889 22.9989C5.81854 22.9915 5.97408 22.9459 6.11248 22.8659L6.11323 22.8655L26.8875 10.8659C27.1968 10.6873 27.3873 10.3572 27.3873 10C27.3873 9.98447 27.3869 9.96894 27.3862 9.95342C27.3788 9.79377 27.3332 9.63822 27.2532 9.49983C27.1206 9.27017 26.9021 9.10261 26.6459 9.03402C26.5616 9.01144 26.4746 9 26.3873 9C26.3767 9 26.3662 9.00017 26.3556 9.0005C26.1908 9.00573 26.0299 9.05162 25.8871 9.13407L5.11288 21.1336Z" fill="currentcolor"></path>
                                    <path fill-rule="evenodd" clip-rule="evenodd" d="M12.5009 14.5531L4.70089 19.0656C4.47132 19.1984 4.1984 19.2346 3.94216 19.1662C3.68592 19.0977 3.46735 18.9303 3.33454 18.7008C3.27789 18.6028 3.23827 18.496 3.21736 18.3849C3.21736 18.3849 2.99459 17.2005 3.00013 15.9954C3.00013 15.9954 2.99749 11.8678 5.38375 8.4935C5.38375 8.4935 7.77001 5.11918 11.6675 3.74445C11.9176 3.65622 12.1925 3.67097 12.4318 3.78545C12.671 3.89992 12.855 4.10475 12.9432 4.35486C12.9809 4.46172 13.0001 4.5742 13.0001 4.6875V13.6875C13.0001 14.0445 12.8099 14.3743 12.5009 14.5531ZM5.01273 16.5746L11.0001 13.1107V6.19572C11.0001 6.19572 8.61014 7.39503 7.01668 9.64828C7.01668 9.64828 4.9979 12.503 5.00011 16.0046C5.00011 16.0046 4.9988 16.2903 5.01273 16.5746Z" fill="currentcolor"></path>
                                    <path d="M10.5588 25.5608C8.00169 24.1059 6.51229 21.5688 6.51229 21.5688C6.37802 21.34 6.1584 21.174 5.90173 21.1072C5.8195 21.0858 5.73487 21.075 5.64991 21.075C5.63698 21.075 5.62406 21.0753 5.61115 21.0758C5.44642 21.0821 5.28582 21.1292 5.14365 21.2126C4.83778 21.3922 4.6499 21.7203 4.6499 22.075L4.64991 22.0779C4.65042 22.2549 4.6979 22.4286 4.78752 22.5813C6.54772 25.5797 9.56976 27.2991 9.56976 27.2991C12.5918 29.0186 16.0687 28.9998 16.0687 28.9998C19.5456 28.981 22.5489 27.2291 22.5489 27.2291C25.5522 25.4772 27.2799 22.4599 27.2799 22.4599C29.0077 19.4426 28.9985 15.9657 28.9985 15.9657C28.9893 12.4887 27.2457 9.48061 27.2457 9.48061C25.502 6.47249 22.4895 4.73644 22.4895 4.73644C19.477 3.00039 16 3 16 3C15.9389 3 15.878 3.00558 15.8181 3.01667C15.344 3.10435 15 3.51778 14.9999 3.99989C14.9999 4.01594 15.0003 4.03196 15.0011 4.04792C15.013 4.29624 15.1169 4.53122 15.2927 4.70702C15.4802 4.89458 15.7346 4.99997 15.9998 5H16.0002C18.942 5.00045 21.4909 6.4693 21.4909 6.4693C24.0399 7.93826 25.5153 10.4836 25.5153 10.4836C26.9907 13.0289 26.9985 15.9709 26.9985 15.9709C27.0063 18.913 25.5443 21.4661 25.5443 21.4661C24.0824 24.0191 21.5411 25.5016 21.5411 25.5016C18.9999 26.984 16.0579 26.9998 16.0579 26.9998C13.1159 27.0157 10.5588 25.5608 10.5588 25.5608Z" fill="currentcolor"></path>
                                </svg>