<svg width="20" height="20" viewBox="0 0 20 20" fill="none" xmlns="http://www.w3.org/2000/svg">
<path d="M18.125 11.875V17.0313C18.125 17.1556 18.0756 17.2748 17.9877 17.3627C17.8998 17.4506 17.7806 17.5 17.6562 17.5H12.5C11.3365 17.5003 10.2016 17.1398 9.25158 16.4682C8.30154 15.7966 7.58313 14.8469 7.19531 13.75H7.5C8.99184 13.75 10.4226 13.1574 11.4775 12.1025C12.5324 11.0476 13.125 9.61687 13.125 8.12502C13.1254 7.48963 13.0179 6.85879 12.807 6.2594C14.2434 6.33792 15.5951 6.96376 16.5842 8.00825C17.5734 9.05275 18.1247 10.4365 18.125 11.875Z" fill="currentcolor" fill-opacity="0.1"/>
<path d="M13.2477 5.67112C12.682 4.34687 11.6765 3.25855 10.401 2.59017C9.12553 1.92178 7.65839 1.71432 6.2476 2.00287C4.83682 2.29142 3.56895 3.05828 2.65834 4.17379C1.74773 5.2893 1.25025 6.68504 1.25 8.12503V13.2813C1.25 13.5714 1.36523 13.8496 1.57035 14.0547C1.77547 14.2598 2.05367 14.375 2.34375 14.375H6.77109C7.25882 15.4888 8.06026 16.4365 9.07758 17.1024C10.0949 17.7684 11.2841 18.1237 12.5 18.125H17.6562C17.9463 18.125 18.2245 18.0098 18.4296 17.8047C18.6348 17.5996 18.75 17.3214 18.75 17.0313V11.875C18.7497 10.3471 18.1897 8.87223 17.1759 7.72913C16.1621 6.58602 14.7646 5.8539 13.2477 5.67112ZM2.5 8.12503C2.5 7.13612 2.79324 6.16942 3.34265 5.34718C3.89206 4.52493 4.67295 3.88407 5.58658 3.50563C6.50021 3.12719 7.50555 3.02818 8.47545 3.2211C9.44536 3.41403 10.3363 3.89023 11.0355 4.5895C11.7348 5.28876 12.211 6.17967 12.4039 7.14958C12.5969 8.11948 12.4978 9.12482 12.1194 10.0384C11.741 10.9521 11.1001 11.733 10.2779 12.2824C9.4556 12.8318 8.48891 13.125 7.5 13.125H2.5V8.12503ZM17.5 16.875H12.5C11.6159 16.874 10.7477 16.6391 9.98375 16.1941C9.21976 15.7492 8.5871 15.11 8.15 14.3414C9.00603 14.2526 9.83445 13.9878 10.5833 13.5636C11.3321 13.1394 11.9852 12.565 12.5015 11.8765C13.0178 11.1879 13.3862 10.4001 13.5836 9.56238C13.7809 8.72469 13.803 7.85525 13.6484 7.00862C14.7447 7.26735 15.7216 7.88868 16.4206 8.77193C17.1197 9.65518 17.5 10.7486 17.5 11.875V16.875Z" fill="currentcolor"/>
</svg>
